<?xml version="1.0" standalone="no"?>
<!DOCTYPE svg PUBLIC "-//W3C//DTD SVG 20010904//EN"
 "http://www.w3.org/TR/2001/REC-SVG-20010904/DTD/svg10.dtd">
<svg version="1.0" xmlns="http://www.w3.org/2000/svg"
 width="2955.000000pt" height="2955.000000pt" viewBox="0 0 2955.000000 2955.000000"
 preserveAspectRatio="xMidYMid meet">
<metadata>
Created by potrace 1.14, written by Peter Selinger 2001-2017
</metadata>
<g transform="translate(0.000000,2955.000000) scale(0.100000,-0.100000)"
fill="#000000" stroke="none">
<path d="M14665 27830 c6 -9 2 -10 -15 -5 -17 6 -21 4 -14 -6 6 -11 4 -12 -7
-4 -19 14 -233 6 -258 -9 -6 -4 -18 -3 -26 4 -8 7 -15 7 -19 1 -4 -6 -13 -8
-21 -4 -8 3 -15 0 -15 -7 0 -10 -3 -10 -15 0 -8 7 -15 8 -15 3 0 -6 -14 -9
-31 -7 -18 2 -28 0 -24 -6 8 -13 -18 -8 -27 5 -5 6 -8 6 -8 -1 0 -10 -20 -14
-102 -17 -21 -1 -38 -6 -38 -11 0 -4 -9 -6 -20 -3 -11 3 -20 1 -20 -3 0 -4
-10 -6 -22 -2 -15 4 -19 2 -13 -7 6 -10 3 -11 -15 -1 -15 8 -20 8 -16 1 5 -7
-3 -11 -18 -12 -35 -2 -39 -3 -55 -13 -9 -6 -12 -5 -8 1 3 5 0 10 -8 10 -8 0
-12 -4 -10 -7 4 -7 -50 -19 -97 -23 -10 -1 -18 -5 -18 -9 0 -4 -9 -5 -20 -3
-11 2 -20 0 -20 -5 0 -5 -9 -7 -20 -5 -11 2 -20 0 -20 -4 0 -4 -6 -8 -12 -9
-49 -6 -61 -10 -68 -21 -5 -10 -9 -10 -15 -2 -5 9 -10 9 -20 1 -8 -7 -19 -9
-25 -5 -5 3 -10 1 -10 -5 0 -6 -4 -8 -10 -5 -5 3 -10 1 -10 -6 0 -7 -3 -9 -7
-6 -3 4 -17 0 -31 -9 -13 -9 -21 -11 -18 -5 4 6 2 11 -4 11 -6 0 -13 -7 -17
-16 -5 -13 -7 -13 -14 -2 -7 10 -9 11 -9 0 0 -7 -4 -10 -10 -7 -5 3 -10 0 -10
-7 0 -9 -3 -9 -10 2 -6 10 -10 11 -10 3 0 -7 -7 -13 -16 -13 -8 0 -12 -5 -8
-11 4 -7 -1 -7 -16 1 -15 8 -20 8 -16 1 6 -10 -13 -16 -36 -12 -5 0 -8 -4 -8
-9 0 -5 -3 -9 -7 -9 -19 3 -34 -2 -29 -9 2 -4 -7 -8 -22 -7 -15 0 -33 -6 -41
-13 -7 -7 -19 -11 -27 -8 -7 3 -14 0 -16 -6 -2 -6 -15 -13 -28 -15 -13 -2 -27
-8 -30 -14 -4 -5 -20 -11 -37 -12 -17 -1 -29 -4 -27 -6 7 -8 -40 -35 -61 -36
-11 0 -19 -5 -18 -11 1 -6 -9 -10 -22 -9 -13 2 -26 -3 -29 -11 -3 -8 -15 -14
-26 -14 -11 0 -20 -5 -20 -11 0 -5 -4 -8 -9 -4 -5 3 -12 1 -16 -5 -3 -5 -15
-10 -25 -10 -11 0 -24 -9 -30 -20 -6 -11 -15 -18 -20 -15 -10 6 -60 -18 -93
-44 -9 -8 -20 -12 -23 -8 -3 3 -14 -3 -25 -14 -11 -11 -24 -17 -28 -14 -5 2
-11 -2 -15 -10 -3 -8 -15 -15 -26 -15 -12 0 -18 -4 -15 -10 3 -5 0 -10 -8 -10
-8 0 -24 -9 -37 -20 -12 -11 -26 -17 -30 -15 -4 3 -11 -2 -14 -11 -3 -8 -10
-13 -15 -10 -5 3 -11 -1 -15 -9 -3 -8 -15 -15 -27 -15 -12 0 -19 -3 -16 -7 11
-10 -31 -35 -46 -27 -6 4 -9 4 -5 0 7 -9 -31 -56 -45 -56 -5 0 -16 -8 -24 -17
-9 -12 -12 -13 -8 -3 4 8 -5 2 -19 -13 -14 -15 -26 -25 -26 -21 0 4 -14 -7
-30 -25 -17 -17 -35 -29 -41 -26 -5 4 -9 3 -8 -2 3 -20 -2 -34 -10 -28 -6 3
-15 -4 -21 -15 -6 -11 -15 -18 -20 -15 -5 3 -11 -4 -15 -15 -3 -11 -15 -25
-26 -31 -11 -5 -17 -14 -14 -19 3 -6 -1 -7 -9 -4 -9 3 -16 1 -16 -5 0 -7 -18
-29 -40 -50 -22 -21 -40 -43 -40 -50 0 -7 -4 -10 -9 -7 -9 6 -26 -22 -22 -37
1 -5 -3 -5 -9 -2 -7 4 -14 -2 -17 -14 -3 -11 -9 -18 -14 -15 -5 3 -9 1 -9 -4
0 -4 -9 -18 -20 -30 -14 -14 -16 -22 -8 -23 7 0 3 -4 -9 -9 -13 -5 -23 -16
-23 -24 0 -9 -9 -20 -20 -26 -11 -6 -20 -17 -20 -25 0 -8 -5 -15 -11 -15 -6 0
-8 -7 -5 -16 3 -8 2 -13 -3 -10 -4 3 -17 -10 -27 -29 -10 -19 -22 -35 -26 -35
-5 0 -8 -6 -8 -14 0 -8 -7 -22 -16 -30 -8 -9 -16 -25 -17 -35 0 -11 -4 -18 -8
-15 -7 4 -20 -19 -25 -45 -1 -8 -8 -17 -15 -21 -6 -5 -8 -13 -4 -21 6 -9 3
-11 -9 -6 -9 4 -15 3 -11 -2 3 -6 -4 -26 -15 -46 -11 -20 -17 -41 -14 -47 5
-7 2 -8 -6 -3 -10 6 -12 4 -7 -8 3 -10 2 -17 -3 -17 -6 0 -10 -7 -10 -15 0 -8
-4 -15 -10 -15 -5 0 -9 -3 -8 -7 3 -15 -14 -63 -23 -63 -5 0 -8 -3 -8 -7 1 -5
0 -11 -1 -15 -1 -5 -4 -12 -5 -18 -1 -5 -4 -12 -5 -15 -1 -3 -3 -8 -4 -12 -1
-5 -7 -18 -14 -29 -6 -12 -8 -24 -5 -28 3 -3 1 -6 -6 -6 -8 0 -11 -7 -7 -15 3
-8 0 -15 -6 -15 -6 0 -8 -3 -5 -7 4 -3 2 -12 -4 -20 -6 -7 -8 -13 -5 -13 4 0
1 -10 -6 -22 -7 -13 -12 -27 -13 -33 -2 -24 -28 -101 -38 -114 -10 -12 -9 -13
1 -7 12 7 12 4 1 -15 -7 -13 -12 -32 -10 -41 1 -10 -2 -18 -8 -18 -6 0 -8 -7
-5 -15 4 -8 1 -15 -6 -15 -6 0 -8 -4 -5 -10 3 -5 3 -16 -1 -22 -8 -12 -13 -34
-15 -68 -1 -8 -7 -21 -13 -29 -9 -12 -8 -13 3 -6 11 6 12 5 5 -6 -10 -17 -15
-38 -15 -61 0 -10 -5 -18 -11 -18 -7 0 -7 -5 1 -14 9 -10 8 -16 -3 -25 -8 -7
-12 -19 -10 -26 3 -7 1 -23 -6 -34 -8 -16 -8 -21 2 -21 8 0 9 -3 3 -8 -9 -6
-13 -22 -20 -77 -1 -11 -4 -20 -5 -20 -1 0 -3 -14 -4 -32 -1 -18 -5 -35 -9
-39 -4 -4 -1 -14 6 -22 10 -13 9 -14 -2 -7 -11 6 -13 3 -9 -13 4 -12 3 -24 -1
-27 -9 -5 -8 -36 3 -53 4 -7 4 -12 -1 -11 -20 3 -27 -2 -13 -11 8 -5 10 -10 3
-10 -6 0 -9 -9 -5 -22 3 -12 1 -19 -5 -15 -11 7 -11 -22 1 -41 4 -6 3 -12 -1
-12 -5 0 -8 -15 -8 -32 0 -18 -1 -37 -4 -42 -2 -4 -5 -33 -7 -63 -1 -30 -5
-57 -8 -60 -3 -3 -1 -14 4 -24 7 -11 7 -20 0 -24 -5 -3 -8 -26 -7 -50 1 -25 0
-45 -4 -45 -4 0 -5 -10 -1 -22 4 -16 2 -19 -9 -13 -11 7 -12 6 -2 -6 13 -16
12 -36 -1 -58 -6 -10 -5 -12 2 -7 16 9 15 -7 0 -22 -9 -9 -9 -12 1 -12 11 0
11 -3 0 -17 -12 -15 -12 -16 1 -8 13 7 13 6 2 -7 -9 -11 -10 -18 -2 -23 6 -3
7 -12 3 -18 -12 -19 -13 -87 -2 -87 6 0 3 -7 -5 -16 -9 -8 -13 -21 -9 -27 9
-15 10 -57 2 -57 -10 0 2 -44 15 -52 7 -5 3 -8 -9 -8 -17 0 -17 -2 -5 -10 8
-5 10 -10 4 -10 -7 0 -9 -17 -7 -46 3 -35 1 -44 -8 -39 -8 6 -10 4 -4 -5 12
-20 16 -98 4 -105 -5 -4 -6 -12 -2 -18 12 -19 11 -131 -1 -139 -8 -6 -8 -8 0
-8 7 0 10 -24 9 -70 -2 -45 1 -67 8 -63 6 4 7 1 1 -8 -12 -19 -11 -119 1 -119
6 0 4 -4 -4 -9 -10 -6 -10 -10 -1 -16 9 -6 9 -10 -1 -16 -12 -8 -11 -11 1 -19
11 -7 11 -10 2 -10 -7 0 -10 -5 -6 -11 4 -7 7 -40 6 -75 0 -44 3 -62 10 -58 7
5 8 2 2 -7 -5 -8 -9 -25 -10 -39 0 -14 -4 -31 -8 -38 -4 -7 -4 -12 1 -11 20 3
25 -2 14 -15 -9 -10 -9 -16 -1 -21 8 -5 8 -11 -1 -21 -9 -11 -9 -14 1 -14 10
0 10 -3 0 -15 -7 -8 -8 -15 -3 -15 5 0 10 -7 10 -15 0 -8 -5 -15 -10 -15 -5 0
-5 -6 2 -13 8 -10 7 -17 -2 -27 -9 -9 -9 -11 0 -6 15 8 14 -36 -2 -46 -7 -5
-7 -8 1 -8 6 0 11 -34 12 -87 2 -47 6 -91 9 -96 4 -7 -1 -8 -13 -4 -18 7 -18
6 -2 -6 10 -8 15 -17 11 -20 -3 -4 0 -14 8 -24 8 -9 9 -14 3 -10 -8 4 -11 -5
-10 -28 0 -19 5 -35 11 -35 5 0 4 -5 -2 -11 -7 -7 -8 -20 -3 -34 5 -14 4 -27
-3 -34 -8 -8 -8 -11 1 -11 7 0 12 -7 12 -15 0 -8 -6 -15 -12 -15 -9 0 -9 -3
-2 -8 9 -6 14 -48 16 -152 0 -19 6 -41 12 -49 8 -12 8 -13 -2 -7 -16 10 -13
-25 3 -36 6 -5 4 -8 -5 -8 -13 0 -13 -1 0 -10 11 -7 11 -10 2 -10 -8 0 -10 -5
-5 -12 4 -7 8 -44 9 -83 1 -38 3 -72 4 -75 1 -3 2 -18 2 -35 0 -16 5 -36 12
-44 8 -11 8 -13 0 -8 -8 4 -11 -2 -10 -18 0 -14 5 -25 9 -25 5 0 5 -6 1 -12
-12 -19 -12 -48 -1 -55 6 -4 7 -1 2 7 -5 9 -4 11 4 6 6 -4 8 -13 4 -19 -4 -6
-6 -43 -4 -82 2 -38 4 -83 4 -100 1 -16 6 -33 12 -37 7 -5 7 -8 0 -8 -12 0
-13 -39 -2 -57 4 -6 1 -14 -5 -16 -10 -4 -10 -6 0 -6 6 -1 12 -9 12 -19 0 -10
-6 -24 -12 -31 -10 -11 -10 -13 0 -7 12 7 15 -20 15 -136 0 -21 4 -38 8 -38
12 0 7 -23 -6 -32 -7 -5 -6 -8 0 -8 6 0 11 -22 10 -51 0 -28 3 -53 6 -55 4 -2
5 -15 4 -29 -2 -14 1 -27 6 -31 5 -3 5 -12 0 -22 -14 -26 -14 -34 1 -43 10 -7
10 -9 0 -9 -8 0 -10 -5 -5 -12 12 -21 12 -38 0 -38 -7 0 -7 -4 2 -9 8 -5 11
-15 8 -23 -3 -8 -1 -21 3 -28 5 -8 4 -22 -1 -32 -6 -11 -6 -18 0 -18 5 0 7 -9
4 -20 -3 -11 -2 -28 2 -37 5 -10 7 -22 6 -28 -7 -27 -7 -55 -1 -55 4 0 11 -7
14 -16 5 -14 4 -15 -9 -4 -14 11 -14 10 -5 -14 5 -15 8 -32 4 -37 -3 -5 0 -9
6 -9 6 0 8 -5 4 -12 -7 -11 -9 -60 -4 -73 2 -3 3 -14 4 -24 0 -11 4 -22 8 -26
3 -4 2 -20 -2 -36 -5 -16 -5 -29 -1 -29 4 0 7 -11 7 -25 0 -14 -5 -25 -10 -25
-6 0 -5 -4 2 -8 8 -6 13 -40 15 -105 1 -53 4 -97 7 -97 3 0 6 -24 7 -52 2 -29
4 -83 5 -120 1 -38 5 -68 9 -68 8 0 5 -32 -5 -48 -4 -6 -3 -12 2 -12 4 0 8
-32 8 -71 -1 -39 3 -73 7 -76 4 -3 3 -11 -3 -18 -7 -8 -7 -16 -2 -19 6 -3 7
-20 2 -39 -4 -18 -3 -43 1 -55 5 -14 4 -22 -2 -22 -6 0 -9 -7 -6 -15 4 -8 2
-17 -3 -20 -7 -4 -6 -13 0 -25 6 -12 6 -21 1 -25 -6 -3 -8 -14 -6 -25 2 -11 0
-20 -5 -20 -4 0 -6 -9 -3 -21 4 -12 0 -25 -8 -30 -12 -8 -12 -11 1 -19 8 -5
10 -10 5 -10 -6 0 -12 -8 -13 -17 -3 -32 -7 -48 -15 -60 -5 -8 -3 -13 5 -13
10 0 10 -2 -1 -9 -8 -5 -10 -14 -6 -21 6 -9 4 -11 -5 -5 -10 6 -12 4 -7 -8 3
-9 2 -19 -4 -22 -5 -4 -7 -11 -4 -16 4 -5 2 -9 -2 -9 -5 0 -10 -9 -11 -20 -1
-11 -3 -29 -4 -40 -1 -11 -6 -20 -11 -20 -5 0 -7 -7 -3 -15 3 -8 2 -15 -3 -15
-5 0 -14 -20 -21 -45 -7 -25 -17 -45 -23 -45 -6 0 -8 -3 -4 -6 3 -4 0 -19 -9
-35 -8 -16 -15 -32 -15 -36 0 -5 -11 -22 -24 -39 -13 -17 -21 -34 -18 -38 3
-3 1 -12 -5 -19 -7 -8 -9 -17 -5 -20 3 -4 -2 -9 -11 -13 -9 -3 -16 -15 -16
-25 0 -10 -5 -19 -11 -19 -5 0 -7 -4 -4 -10 3 -5 1 -10 -4 -10 -6 0 -11 -7
-11 -15 0 -9 -6 -18 -13 -21 -7 -2 -14 -14 -14 -27 -1 -12 -7 -23 -13 -25 -5
-2 -8 -8 -4 -13 3 -5 0 -9 -5 -9 -6 0 -11 -6 -11 -14 0 -8 -7 -17 -16 -20 -8
-3 -12 -10 -9 -16 3 -5 1 -10 -5 -10 -7 0 -9 -7 -6 -16 3 -8 2 -13 -2 -11 -4
3 -13 -1 -20 -9 -7 -8 -9 -14 -5 -14 4 0 -1 -7 -11 -15 -11 -8 -16 -15 -11
-15 4 0 0 -9 -10 -20 -10 -11 -15 -20 -12 -20 4 0 -2 -10 -13 -22 -45 -51 -51
-60 -47 -64 3 -3 -6 -16 -20 -30 -13 -13 -21 -29 -18 -34 4 -6 3 -9 -2 -8 -4
2 -8 -1 -8 -5 0 -5 -8 -13 -17 -18 -10 -6 -18 -17 -18 -24 0 -8 -5 -15 -11
-15 -5 0 -7 -4 -4 -10 3 -5 -1 -10 -9 -10 -9 0 -15 -6 -14 -12 2 -7 -3 -12
-10 -10 -6 1 -11 -1 -11 -5 3 -20 -2 -34 -11 -28 -5 3 -10 -2 -10 -12 0 -10
-9 -25 -20 -33 -11 -8 -20 -20 -20 -27 0 -7 -4 -13 -10 -13 -5 0 -10 -7 -10
-16 0 -8 -4 -12 -10 -9 -5 3 -10 -1 -10 -10 0 -9 -5 -13 -10 -10 -6 4 -10 3
-9 -2 3 -20 -2 -34 -11 -28 -5 3 -10 -1 -10 -10 0 -8 -7 -18 -15 -21 -8 -4
-12 -10 -9 -15 3 -5 -2 -12 -10 -15 -9 -3 -14 -10 -11 -14 3 -4 -2 -10 -10
-14 -8 -3 -15 -13 -15 -21 0 -9 -4 -13 -10 -10 -5 3 -10 2 -10 -4 0 -9 -24
-40 -62 -82 -10 -10 -18 -23 -18 -29 0 -5 -4 -10 -9 -10 -4 0 -21 -19 -36 -42
-16 -24 -41 -56 -57 -71 -15 -16 -26 -33 -22 -38 3 -5 -2 -9 -10 -9 -9 0 -16
-4 -16 -10 0 -9 -25 -42 -58 -76 -7 -8 -11 -14 -7 -14 3 0 -8 -13 -25 -30 -17
-16 -27 -30 -23 -30 4 0 0 -5 -10 -11 -9 -6 -15 -14 -12 -19 3 -5 -3 -11 -14
-15 -10 -3 -22 -17 -25 -30 -3 -13 -15 -29 -26 -35 -11 -6 -18 -16 -14 -21 3
-6 -3 -13 -15 -16 -11 -3 -19 -9 -16 -13 3 -5 1 -11 -5 -15 -6 -4 -7 -11 -4
-17 4 -7 2 -8 -4 -4 -13 8 -35 -28 -24 -39 4 -5 1 -5 -5 -1 -8 4 -13 1 -13 -8
0 -9 -5 -15 -12 -14 -7 2 -12 -4 -13 -12 -1 -8 -6 -14 -13 -12 -7 1 -12 -5
-12 -13 0 -8 -9 -24 -20 -35 -11 -11 -18 -20 -15 -20 3 0 0 -6 -7 -14 -7 -8
-17 -11 -22 -8 -5 3 -6 0 -2 -6 3 -6 -1 -17 -9 -25 -8 -9 -15 -19 -15 -24 0
-5 -9 -15 -20 -23 -11 -8 -20 -20 -20 -26 0 -6 -7 -17 -15 -24 -8 -7 -12 -17
-8 -23 3 -5 2 -8 -3 -5 -5 3 -15 0 -22 -8 -7 -8 -10 -14 -7 -14 3 0 -4 -10
-16 -22 -12 -13 -26 -35 -31 -50 -5 -16 -13 -26 -18 -23 -4 3 -13 -9 -20 -25
-7 -16 -17 -27 -23 -23 -5 3 -7 1 -4 -4 4 -6 -4 -22 -17 -36 -13 -14 -22 -28
-20 -30 2 -2 -7 -16 -21 -31 -14 -15 -25 -32 -25 -37 0 -6 -6 -7 -12 -3 -8 5
-8 2 1 -10 9 -11 10 -16 3 -14 -7 2 -18 -8 -25 -22 -8 -14 -19 -24 -26 -22 -7
1 -10 -2 -6 -8 3 -6 -1 -17 -9 -26 -9 -8 -16 -22 -16 -29 0 -8 -6 -18 -14 -22
-8 -4 -16 -14 -18 -22 -2 -8 -11 -23 -21 -33 -10 -10 -15 -24 -11 -31 4 -7 4
-9 -1 -5 -8 8 -55 -53 -55 -71 0 -5 -8 -15 -17 -20 -10 -6 -14 -11 -10 -11 5
0 -1 -13 -13 -30 -12 -16 -18 -30 -15 -30 4 0 0 -7 -7 -15 -30 -33 -34 -41
-30 -53 2 -7 -2 -11 -10 -10 -8 2 -12 -4 -10 -16 2 -11 -1 -15 -7 -11 -10 6
-15 -7 -12 -28 1 -4 -6 -10 -14 -13 -8 -4 -15 -12 -15 -20 0 -8 -4 -14 -9 -14
-6 0 -8 -9 -6 -19 3 -15 0 -18 -12 -14 -12 5 -15 2 -10 -10 3 -9 2 -17 -4 -17
-6 0 -9 -5 -7 -12 2 -6 -4 -20 -14 -30 -10 -10 -16 -23 -13 -27 2 -5 -2 -12
-11 -15 -8 -3 -12 -10 -9 -16 3 -5 1 -10 -4 -10 -6 0 -11 -7 -11 -15 0 -7 -8
-19 -17 -24 -12 -7 -13 -11 -5 -11 10 0 9 -4 -2 -16 -9 -8 -13 -21 -9 -27 4
-7 0 -8 -13 -3 -10 4 -15 4 -11 0 4 -4 1 -14 -6 -22 -10 -13 -9 -15 3 -8 8 4
7 1 -4 -8 -10 -8 -16 -22 -13 -30 4 -11 1 -13 -10 -9 -9 4 -14 2 -10 -3 6 -10
-58 -146 -65 -139 -2 2 -5 -6 -5 -18 -1 -12 -7 -23 -13 -25 -5 -2 -8 -8 -4
-13 3 -5 0 -9 -6 -9 -7 0 -10 -6 -7 -14 3 -8 -1 -17 -9 -20 -8 -3 -13 -9 -12
-13 1 -4 -3 -17 -9 -28 -6 -11 -13 -24 -15 -30 -1 -5 -6 -9 -10 -8 -4 2 -5 -4
-2 -12 4 -8 1 -15 -4 -15 -6 0 -9 -9 -7 -19 2 -11 -5 -27 -16 -37 -10 -9 -19
-25 -19 -34 0 -9 -3 -20 -7 -24 -5 -4 -8 -13 -8 -19 -1 -7 -7 -11 -14 -9 -9 2
-11 -3 -7 -14 3 -9 1 -23 -5 -31 -7 -7 -9 -16 -5 -20 3 -4 -4 -17 -16 -30 -12
-13 -18 -23 -14 -23 5 0 1 -11 -8 -25 -9 -14 -13 -25 -9 -25 5 0 2 -4 -4 -8
-7 -4 -14 -18 -16 -31 -2 -12 -9 -26 -16 -31 -11 -6 -11 -9 0 -13 10 -4 10 -6
2 -6 -7 -1 -13 -8 -13 -16 0 -8 -5 -15 -11 -15 -5 0 -7 -4 -4 -10 3 -5 0 -10
-7 -10 -9 0 -9 -3 2 -10 12 -8 12 -10 1 -10 -8 0 -11 -7 -8 -20 3 -11 0 -18
-7 -17 -6 1 -10 -4 -9 -10 2 -7 -1 -13 -6 -13 -4 0 -7 -12 -5 -26 2 -20 -1
-24 -14 -19 -9 3 -13 3 -9 -1 4 -4 1 -14 -6 -22 -9 -13 -9 -14 1 -8 6 4 12 3
12 -2 0 -6 -7 -13 -16 -16 -8 -3 -13 -10 -9 -16 3 -5 1 -17 -4 -27 -14 -26
-24 -57 -23 -65 1 -5 -3 -8 -9 -8 -5 0 -8 -4 -4 -9 3 -5 1 -12 -5 -16 -6 -4
-8 -11 -5 -16 4 -5 2 -9 -3 -9 -6 0 -9 -8 -8 -17 0 -11 -5 -17 -13 -15 -12 3
-12 0 -1 -12 9 -12 9 -16 1 -16 -7 0 -10 -4 -6 -9 3 -5 -2 -17 -11 -25 -11
-12 -12 -16 -2 -16 8 0 6 -5 -5 -11 -9 -6 -14 -15 -11 -21 4 -6 -1 -17 -11
-25 -11 -7 -14 -13 -7 -13 6 0 9 -7 6 -15 -4 -8 -9 -13 -14 -10 -4 2 -6 -7 -4
-20 1 -14 -2 -25 -7 -25 -6 0 -7 -4 -4 -10 3 -5 2 -10 -4 -10 -5 0 -8 -9 -6
-20 2 -11 0 -18 -6 -15 -9 6 -13 -7 -10 -32 1 -7 -3 -13 -10 -13 -6 0 -9 -8
-6 -20 3 -11 2 -18 -3 -15 -4 3 -11 -2 -14 -11 -4 -10 -2 -13 7 -8 9 5 9 4 0
-7 -7 -7 -13 -21 -13 -31 0 -10 -5 -18 -11 -18 -5 0 -7 -4 -4 -10 3 -5 2 -10
-3 -10 -5 0 -9 -8 -9 -17 0 -30 -15 -63 -24 -57 -6 3 -7 -8 -4 -26 4 -23 2
-29 -6 -24 -9 5 -10 1 -7 -14 4 -12 2 -20 -3 -16 -5 3 -9 -6 -9 -21 0 -14 -7
-28 -15 -31 -12 -5 -13 -10 -4 -20 9 -11 8 -14 -7 -14 -16 0 -17 -2 -4 -10 12
-7 12 -10 1 -10 -7 0 -11 -6 -8 -14 3 -8 -2 -17 -11 -21 -14 -5 -14 -7 -2 -15
10 -7 11 -10 3 -10 -7 0 -13 -9 -13 -20 0 -11 -5 -20 -11 -20 -5 0 -7 -5 -3
-11 3 -6 0 -15 -7 -20 -11 -7 -11 -9 -1 -9 10 0 9 -4 -2 -16 -9 -8 -14 -20
-11 -25 4 -5 -2 -9 -11 -9 -14 0 -15 -3 -6 -12 16 -16 15 -31 -2 -25 -11 4
-13 -1 -10 -18 2 -13 0 -27 -6 -30 -6 -4 -8 -11 -5 -16 4 -5 2 -9 -4 -9 -5 0
-8 -11 -7 -25 2 -13 0 -23 -3 -21 -8 5 -31 -21 -24 -27 3 -3 1 -12 -3 -19 -5
-7 -9 -17 -9 -23 0 -5 -7 -26 -16 -45 -29 -61 -44 -105 -41 -118 2 -7 -4 -15
-13 -18 -13 -5 -13 -9 -3 -22 10 -12 10 -14 1 -8 -12 6 -17 -4 -15 -26 1 -3
-5 -12 -13 -18 -8 -7 -15 -21 -15 -32 0 -11 -10 -34 -22 -51 -12 -17 -16 -27
-7 -22 12 8 12 6 1 -8 -8 -9 -10 -22 -6 -28 4 -8 3 -9 -4 -5 -11 6 -16 -6 -13
-26 0 -5 -4 -8 -10 -8 -5 0 -8 -4 -4 -9 3 -5 1 -12 -5 -16 -6 -4 -7 -11 -4
-17 5 -8 1 -9 -11 -4 -15 5 -16 4 -5 -9 9 -11 9 -15 1 -15 -7 0 -9 -5 -6 -10
3 -6 0 -13 -9 -16 -8 -3 -12 -12 -9 -20 3 -8 0 -14 -7 -14 -6 0 -9 -4 -6 -9 3
-5 -1 -12 -10 -15 -8 -3 -13 -10 -9 -16 3 -5 -1 -23 -10 -40 -8 -16 -12 -30
-9 -30 4 0 -3 -9 -15 -19 -12 -10 -17 -21 -11 -23 6 -2 3 -11 -8 -23 -10 -11
-18 -30 -17 -42 1 -12 -2 -20 -6 -17 -14 8 -22 -18 -8 -28 11 -7 9 -8 -6 -6
-14 2 -20 -2 -19 -14 1 -10 -2 -18 -8 -18 -5 0 -6 -5 -3 -10 3 -6 2 -10 -2
-10 -8 0 -44 -73 -42 -86 0 -3 -8 -12 -18 -19 -10 -7 -15 -17 -11 -21 4 -4 0
-14 -10 -23 -9 -9 -18 -23 -20 -31 -2 -8 -8 -17 -13 -18 -5 -2 -7 -8 -3 -13 3
-5 0 -9 -6 -9 -6 0 -8 -4 -5 -10 3 -5 1 -10 -5 -10 -7 0 -10 -7 -6 -15 3 -8 1
-15 -5 -15 -5 0 -17 -16 -25 -35 -8 -19 -19 -35 -25 -35 -5 0 -7 -4 -4 -10 3
-5 -3 -20 -15 -32 -12 -13 -19 -30 -17 -40 3 -11 0 -15 -9 -11 -10 4 -12 0 -7
-13 4 -12 3 -15 -5 -10 -11 6 -17 -5 -13 -26 0 -5 -6 -8 -14 -8 -9 0 -12 -6
-9 -15 4 -8 1 -15 -6 -15 -6 0 -8 -4 -5 -10 3 -5 1 -10 -5 -10 -6 0 -8 -4 -5
-10 3 -6 1 -10 -5 -10 -6 0 -8 -4 -5 -10 3 -5 1 -10 -5 -10 -7 0 -9 -7 -6 -16
6 -15 4 -15 -11 -3 -15 12 -16 12 -10 -3 3 -10 0 -24 -8 -32 -8 -8 -15 -24
-15 -36 0 -17 -4 -21 -17 -16 -10 4 -14 4 -11 0 4 -3 0 -20 -8 -36 -8 -16 -12
-33 -9 -38 3 -6 -1 -10 -9 -10 -9 0 -16 -6 -16 -14 0 -7 -7 -19 -15 -26 -8 -7
-13 -16 -10 -20 3 -5 -2 -16 -11 -24 -9 -9 -17 -22 -18 -29 -1 -7 -9 -23 -18
-36 -9 -13 -15 -31 -13 -42 3 -12 -1 -16 -11 -12 -9 3 -14 -2 -14 -15 0 -11
-7 -27 -15 -36 -18 -18 -20 -30 -2 -21 6 4 4 0 -6 -8 -9 -8 -17 -22 -17 -31 0
-9 -6 -16 -12 -16 -9 0 -8 -4 2 -10 13 -8 12 -10 -3 -10 -10 0 -15 -4 -12 -10
7 -12 -6 -38 -20 -39 -5 -1 -9 -15 -9 -31 1 -17 -3 -30 -8 -30 -5 0 -7 -4 -3
-9 3 -5 1 -12 -5 -16 -5 -3 -10 -15 -10 -26 0 -10 -6 -19 -12 -19 -10 0 -9 -3
1 -9 9 -6 10 -11 2 -15 -6 -4 -9 -12 -6 -17 4 -5 0 -9 -7 -9 -9 0 -9 -3 2 -10
12 -7 12 -10 1 -10 -8 0 -11 -6 -7 -16 3 -8 2 -12 -4 -9 -13 8 -13 -1 0 -25 8
-15 6 -21 -7 -29 -14 -8 -15 -10 -3 -11 13 0 13 -1 0 -10 -8 -5 -11 -10 -6
-10 5 0 3 -6 -3 -14 -9 -10 -9 -16 -1 -21 8 -5 8 -11 -1 -21 -8 -10 -8 -14 0
-14 13 0 10 -22 -4 -32 -6 -5 -4 -8 5 -8 13 0 13 -1 0 -10 -12 -8 -12 -10 -1
-10 11 0 11 -3 0 -17 -8 -9 -9 -14 -3 -10 8 5 11 -7 10 -39 -1 -25 1 -47 6
-50 4 -3 4 -12 1 -21 -5 -12 -3 -14 8 -8 12 8 12 6 0 -8 -7 -9 -9 -17 -4 -17
5 0 8 -16 8 -35 -1 -19 2 -35 7 -35 5 0 6 -4 3 -10 -3 -5 -1 -10 5 -10 8 0 8
-5 1 -17 -7 -13 -5 -23 7 -37 13 -15 13 -17 2 -11 -13 8 -13 7 -1 -8 8 -10 11
-20 8 -24 -4 -3 -2 -12 4 -19 6 -8 9 -20 6 -28 -3 -8 2 -17 11 -21 14 -5 14
-7 2 -15 -12 -8 -12 -10 -1 -10 7 0 11 -6 7 -15 -3 -8 -2 -15 3 -15 5 0 8 -10
7 -22 -1 -13 5 -29 12 -37 10 -10 11 -16 2 -21 -9 -6 -9 -9 -1 -14 6 -4 9 -12
6 -17 -4 -5 -2 -9 4 -9 6 0 7 -7 4 -17 -4 -10 -2 -14 4 -10 6 4 9 -8 8 -29 0
-20 3 -38 7 -40 4 -3 8 -14 8 -25 0 -10 6 -19 13 -19 8 0 7 -4 -3 -10 -8 -5
-10 -10 -4 -10 6 0 11 -7 12 -15 1 -8 3 -22 4 -30 1 -8 6 -15 11 -15 5 0 4 -6
-2 -14 -8 -10 -9 -16 -1 -21 6 -3 8 -10 5 -15 -3 -5 -1 -11 4 -15 11 -6 -29
-52 -41 -48 -5 2 -8 -1 -8 -5 0 -15 -78 -91 -86 -84 -4 4 -4 -1 -1 -10 4 -12
1 -18 -8 -18 -8 0 -15 -6 -15 -13 0 -7 -9 -19 -19 -27 -11 -7 -18 -17 -16 -21
3 -4 -2 -9 -10 -13 -8 -3 -15 -12 -15 -20 0 -8 -6 -19 -13 -23 -7 -4 -23 -25
-36 -45 -12 -21 -27 -38 -32 -38 -6 0 -7 -4 -4 -10 3 -5 -3 -15 -15 -22 -11
-7 -20 -18 -20 -25 0 -7 -5 -13 -11 -13 -6 0 -9 -7 -6 -14 4 -9 -2 -17 -14
-21 -17 -6 -18 -9 -7 -23 11 -13 11 -14 0 -8 -9 5 -15 1 -19 -13 -3 -11 -9
-18 -14 -15 -5 3 -9 -2 -9 -10 0 -8 -7 -19 -16 -24 -9 -5 -15 -12 -15 -16 1
-3 -5 -19 -13 -35 -9 -16 -12 -32 -8 -36 4 -5 1 -5 -6 -1 -7 4 -9 12 -6 18 4
7 2 8 -4 4 -7 -4 -12 -16 -12 -27 0 -10 -5 -19 -11 -19 -5 0 -7 -4 -4 -10 3
-6 1 -10 -5 -10 -6 0 -8 -5 -4 -12 5 -8 2 -9 -10 -5 -9 4 -15 3 -12 -2 6 -8
-28 -59 -49 -73 -5 -4 -6 -8 -2 -8 4 0 -2 -10 -14 -22 -12 -13 -26 -35 -31
-50 -5 -16 -14 -25 -19 -22 -5 3 -9 0 -9 -5 0 -6 -9 -20 -20 -31 -11 -11 -17
-20 -14 -20 4 0 1 -7 -6 -15 -7 -8 -16 -12 -21 -9 -5 3 -6 -3 -2 -12 4 -12 3
-15 -5 -10 -7 4 -14 -3 -18 -19 -3 -13 -10 -23 -14 -20 -8 5 -25 -24 -21 -38
1 -5 -3 -6 -9 -2 -5 3 -13 -2 -17 -12 -4 -10 -32 -44 -64 -75 -31 -31 -54 -59
-51 -62 3 -3 -3 -6 -14 -6 -16 0 -17 -2 -4 -10 13 -8 12 -10 -5 -11 -11 -1
-24 -1 -29 0 -5 1 -3 -6 5 -15 8 -10 9 -15 3 -11 -7 4 -17 0 -24 -8 -7 -8 -16
-12 -21 -9 -5 3 -6 -2 -3 -10 4 -11 0 -16 -10 -16 -9 0 -19 -7 -22 -15 -4 -8
-10 -12 -15 -9 -5 3 -9 -2 -9 -11 0 -9 -4 -13 -10 -10 -5 3 -10 1 -10 -4 0 -6
-7 -11 -16 -11 -8 0 -12 -4 -9 -10 3 -6 -1 -10 -9 -10 -9 0 -16 -3 -16 -8 0
-4 -14 -13 -30 -20 -17 -8 -28 -18 -24 -23 3 -5 2 -9 -3 -8 -4 1 -11 0 -15 -1
-5 -1 -14 -3 -20 -4 -7 -1 -12 -7 -11 -14 2 -7 -4 -9 -14 -5 -11 4 -14 3 -9
-5 5 -8 2 -10 -8 -6 -9 3 -16 1 -16 -6 0 -6 -4 -8 -10 -5 -5 3 -10 1 -10 -6 0
-7 -3 -10 -6 -6 -4 3 -20 -1 -36 -9 -16 -8 -33 -12 -38 -9 -6 3 -10 2 -10 -4
0 -6 -12 -14 -27 -17 -16 -4 -37 -14 -47 -23 -14 -11 -17 -12 -11 -2 6 11 4
13 -9 8 -10 -4 -20 -7 -22 -7 -3 0 -2 -6 2 -12 5 -9 2 -9 -9 1 -15 12 -21 9
-18 -11 0 -4 -6 -5 -14 -2 -9 4 -23 0 -32 -7 -9 -8 -14 -9 -10 -2 9 14 -54 -7
-65 -22 -5 -6 -8 -5 -8 4 0 11 -3 11 -17 0 -9 -8 -18 -13 -20 -11 -10 7 -33 1
-28 -8 4 -7 -3 -7 -20 0 -19 7 -24 7 -19 -2 5 -8 0 -9 -14 -6 -12 4 -22 2 -22
-4 0 -5 -4 -7 -9 -3 -5 3 -13 0 -17 -6 -4 -8 -9 -7 -15 2 -7 11 -9 11 -9 1 0
-7 -4 -10 -10 -7 -5 3 -10 2 -10 -3 0 -5 -13 -8 -30 -7 -17 1 -27 -2 -23 -8 4
-6 0 -8 -10 -4 -10 4 -17 1 -17 -6 0 -8 -4 -6 -10 3 -6 9 -10 11 -10 3 0 -7
-7 -10 -17 -6 -12 5 -14 3 -8 -8 8 -12 6 -12 -8 0 -13 10 -17 10 -17 1 0 -7
-7 -10 -15 -6 -8 3 -15 0 -15 -7 0 -8 -4 -6 -10 3 -5 8 -10 10 -10 3 0 -6 -11
-10 -25 -8 -14 1 -28 -2 -31 -6 -3 -5 -14 -9 -25 -9 -14 0 -18 -4 -13 -13 5
-8 2 -8 -9 2 -14 11 -17 11 -17 0 0 -12 -2 -12 -9 0 -6 9 -10 10 -12 2 -3 -7
-19 -13 -36 -13 -18 -1 -30 -5 -27 -10 8 -12 -19 -5 -28 7 -5 6 -8 3 -8 -7 0
-11 -6 -15 -20 -11 -13 3 -20 0 -20 -8 0 -12 -2 -12 -9 0 -7 11 -13 10 -35 -4
-20 -14 -26 -14 -26 -4 0 12 -2 12 -9 0 -5 -8 -18 -12 -30 -8 -12 3 -19 1 -15
-4 3 -5 -4 -9 -15 -9 -12 0 -21 -5 -21 -11 0 -8 -5 -8 -15 1 -11 9 -15 9 -15
1 0 -7 -4 -9 -10 -6 -5 3 -10 2 -10 -4 0 -6 -7 -8 -15 -5 -9 4 -15 0 -15 -7 0
-11 -3 -11 -10 1 -6 10 -10 11 -10 3 0 -7 -11 -13 -24 -13 -13 0 -27 -6 -29
-12 -4 -10 -8 -9 -16 2 -9 13 -11 13 -11 -2 0 -23 -20 -34 -31 -17 -7 11 -9
11 -9 1 0 -7 -4 -11 -9 -8 -5 3 -12 -1 -15 -10 -3 -9 -12 -14 -19 -11 -19 7
-49 -12 -40 -26 4 -7 0 -7 -10 2 -12 9 -17 10 -17 2 0 -7 -4 -10 -9 -6 -5 3
-16 -2 -24 -10 -9 -8 -27 -19 -42 -25 -16 -6 -23 -14 -19 -22 4 -7 3 -8 -4 -4
-6 4 -20 -2 -31 -13 -11 -11 -22 -17 -25 -14 -3 4 -6 1 -6 -6 0 -7 -5 -9 -10
-6 -6 3 -10 1 -10 -4 0 -17 -33 -50 -43 -44 -6 3 -7 1 -4 -4 4 -6 0 -14 -9
-17 -9 -4 -14 -9 -11 -13 4 -3 3 -11 -2 -17 -22 -27 -51 -88 -46 -97 4 -5 2
-9 -4 -9 -5 0 -12 -18 -16 -40 -4 -22 -12 -40 -18 -40 -7 0 -5 -5 3 -10 11 -7
11 -10 2 -10 -7 0 -11 -4 -7 -9 3 -5 1 -13 -5 -16 -8 -5 -7 -11 1 -21 9 -11 9
-14 0 -14 -7 0 -10 -4 -6 -9 3 -5 1 -13 -5 -16 -6 -4 -7 -12 -3 -18 7 -11 9
-33 3 -47 -5 -13 -5 -60 0 -60 3 0 6 -9 6 -20 0 -11 -4 -20 -8 -20 -4 0 -3
-12 2 -26 13 -33 13 -37 -2 -28 -7 4 -8 3 -4 -5 4 -6 10 -33 12 -59 3 -26 7
-53 9 -59 2 -7 -1 -13 -8 -14 -7 0 -3 -4 8 -9 11 -5 15 -9 10 -9 -12 -1 -15
-41 -3 -41 4 0 5 -7 2 -15 -4 -8 -1 -15 5 -15 8 0 9 -6 2 -19 -6 -10 -8 -21
-5 -24 5 -4 13 -58 16 -97 0 -8 5 -21 11 -27 6 -9 6 -13 -1 -13 -7 0 -8 -10
-3 -27 4 -16 6 -34 3 -42 -3 -9 0 -11 8 -6 9 6 9 3 1 -13 -6 -12 -7 -23 -3
-26 8 -5 11 -27 15 -113 1 -18 6 -33 10 -33 5 0 7 -7 3 -15 -3 -8 -1 -26 4
-40 6 -17 6 -25 -1 -25 -6 0 -7 -5 -4 -10 4 -6 11 -7 17 -4 6 4 5 -3 -2 -15
-9 -17 -9 -26 1 -37 9 -11 9 -14 -1 -14 -9 0 -10 -3 -1 -13 8 -10 7 -17 -2
-27 -6 -7 -7 -10 -1 -7 7 4 11 -11 13 -45 1 -29 7 -56 14 -60 9 -6 9 -8 0 -8
-8 0 -13 -13 -13 -30 0 -16 4 -30 8 -30 10 0 9 -51 -1 -68 -5 -7 -4 -12 2 -12
6 0 11 -7 11 -15 0 -8 -6 -15 -12 -15 -9 0 -8 -4 2 -10 13 -9 13 -10 0 -10
-10 0 -11 -3 -4 -8 6 -4 11 -42 12 -85 1 -43 4 -83 8 -88 3 -5 -1 -9 -8 -9 -9
0 -9 -3 2 -10 9 -6 10 -10 3 -10 -8 0 -9 -9 -3 -30 5 -16 5 -30 0 -30 -4 0 -4
-16 0 -35 5 -21 4 -38 -2 -41 -6 -4 -5 -10 3 -15 8 -5 10 -9 4 -9 -11 0 -12
-50 -1 -68 4 -7 3 -12 -2 -12 -5 0 -9 -17 -8 -37 2 -21 -2 -46 -7 -57 -5 -11
-5 -16 0 -13 5 4 10 0 10 -8 0 -8 -4 -12 -9 -9 -10 6 -9 -4 1 -31 5 -11 5 -24
1 -30 -5 -5 -9 -30 -11 -55 -1 -25 -7 -51 -13 -58 -7 -9 -6 -16 3 -22 8 -5 9
-10 3 -14 -6 -3 -9 -17 -7 -31 1 -14 -1 -25 -4 -25 -6 0 -7 -11 -13 -90 -2
-19 -9 -39 -16 -43 -9 -6 -9 -13 -2 -27 6 -12 6 -21 1 -25 -6 -3 -10 -13 -10
-23 -1 -55 -8 -89 -21 -100 -8 -8 -9 -11 -3 -7 15 7 18 -11 3 -20 -5 -3 -7
-12 -4 -19 3 -8 1 -17 -4 -20 -5 -3 -8 -17 -7 -31 2 -14 0 -25 -5 -25 -5 0 -7
-11 -5 -25 1 -14 -1 -28 -5 -30 -4 -3 -8 -15 -8 -27 0 -33 -6 -52 -17 -60 -6
-5 -4 -8 5 -8 13 0 13 -2 1 -9 -8 -5 -15 -22 -17 -38 -5 -45 -9 -68 -18 -81
-4 -6 -5 -16 -2 -21 4 -5 2 -11 -3 -13 -5 -1 -11 -23 -13 -48 -2 -25 -6 -50
-9 -55 -9 -17 -11 -205 -2 -205 4 0 9 -17 10 -37 1 -21 7 -39 13 -41 5 -2 8
-7 5 -12 -3 -5 2 -16 11 -24 8 -9 12 -16 8 -16 -3 0 0 -8 7 -17 12 -14 12 -16
-1 -9 -8 4 -6 -1 6 -11 11 -10 19 -24 16 -31 -2 -6 1 -12 7 -12 6 0 10 -3 9
-7 -4 -16 14 -53 23 -48 5 3 6 -1 3 -9 -3 -9 -1 -16 4 -16 6 0 14 -9 17 -20 4
-11 18 -27 33 -36 17 -10 20 -13 7 -10 -19 6 -19 5 -1 -8 10 -8 15 -20 11 -26
-3 -6 -3 -10 2 -9 16 4 43 -13 43 -28 0 -8 4 -11 10 -8 5 3 10 1 10 -5 0 -6 6
-18 14 -26 11 -11 16 -11 19 -1 4 9 6 9 6 -1 1 -14 31 -49 31 -37 0 4 12 -6
28 -21 15 -16 34 -30 42 -32 8 -2 18 -8 21 -14 4 -6 9 -5 12 3 4 10 6 9 6 -3
1 -9 6 -20 13 -24 7 -5 8 -3 3 7 -5 8 1 6 13 -4 11 -11 25 -16 31 -12 7 3 8 0
5 -9 -4 -11 0 -14 15 -11 12 2 21 0 21 -6 0 -5 9 -9 21 -9 11 0 17 -4 14 -10
-3 -5 2 -10 12 -10 11 0 25 -6 32 -13 11 -10 12 -9 6 1 -6 11 -3 11 14 0 12
-7 21 -16 21 -19 0 -4 7 -10 16 -13 10 -4 13 -2 8 6 -5 8 -2 9 10 5 10 -4 20
-7 22 -7 3 0 3 -4 0 -8 -2 -4 7 -9 22 -10 15 -1 29 -7 30 -12 2 -6 8 -7 13 -4
6 3 21 -2 36 -11 17 -12 23 -13 18 -4 -5 9 -1 8 11 -2 10 -9 29 -15 42 -14 13
1 26 -3 29 -8 4 -6 1 -7 -7 -2 -8 5 -11 4 -7 -2 4 -6 18 -9 32 -8 14 2 25 -1
25 -6 0 -6 4 -7 10 -4 5 3 10 0 10 -7 0 -9 3 -9 10 2 8 12 10 12 10 1 0 -8 3
-12 6 -9 3 4 20 1 37 -7 18 -7 38 -10 46 -7 9 3 11 0 6 -8 -5 -8 -3 -11 6 -8
8 3 28 -1 44 -7 17 -7 36 -10 43 -8 6 3 12 0 12 -6 0 -6 7 -7 17 -4 12 5 14 3
8 -8 -8 -12 -6 -12 8 0 13 10 17 10 17 1 0 -9 4 -9 17 1 11 10 14 10 9 2 -4
-8 -1 -13 8 -14 17 -2 33 -5 41 -9 10 -5 25 -8 51 -9 17 -1 23 -5 18 -13 -5
-8 0 -7 11 2 15 12 17 12 10 1 -6 -11 -4 -13 8 -8 10 3 17 2 17 -3 0 -6 5 -10
11 -10 5 0 7 4 4 10 -3 6 1 7 9 4 9 -3 16 -9 16 -13 0 -4 17 -8 37 -9 20 -2
44 -8 52 -15 12 -10 13 -9 6 3 -7 12 -6 13 6 3 9 -7 30 -13 47 -15 21 -1 32
-8 32 -18 0 -10 3 -11 8 -3 5 8 16 8 44 -2 23 -8 35 -8 31 -2 -3 6 4 3 16 -5
12 -9 31 -14 42 -11 11 3 19 0 19 -7 0 -9 4 -9 17 1 14 12 16 12 8 0 -6 -11
-3 -13 13 -9 12 3 23 1 25 -5 4 -14 37 -18 37 -4 0 9 2 9 8 0 4 -7 22 -13 40
-15 18 -1 32 -6 32 -11 0 -4 5 -5 10 -2 6 4 18 1 27 -7 12 -9 15 -9 9 0 -4 6
-2 12 3 12 6 0 11 -5 11 -12 0 -6 3 -8 7 -5 3 4 13 1 21 -6 13 -10 14 -9 7 3
-8 13 -6 13 8 2 9 -8 21 -11 27 -7 5 3 10 2 10 -3 0 -6 9 -8 20 -5 11 3 20 0
20 -6 0 -5 6 -8 14 -5 8 3 17 1 21 -5 3 -6 12 -11 18 -11 7 0 6 4 -3 10 -9 6
-10 10 -3 10 6 0 15 -5 18 -10 4 -6 11 -8 16 -5 5 4 9 0 9 -7 0 -9 3 -9 10 2
7 12 10 12 10 1 0 -7 6 -11 15 -7 8 3 15 2 15 -2 0 -4 15 -7 33 -7 17 0 37 -3
42 -6 6 -4 21 -9 35 -11 14 -1 28 -7 32 -13 5 -6 8 -4 8 5 0 12 2 12 9 2 4 -7
27 -14 49 -15 23 -1 42 -6 42 -10 0 -4 6 -7 13 -6 27 3 38 -1 31 -13 -6 -10
-5 -10 7 -1 9 7 20 9 29 3 9 -6 20 -4 29 3 12 9 13 9 7 0 -5 -9 -1 -13 12 -13
10 0 22 -3 25 -7 6 -6 53 -12 100 -14 9 0 15 -3 13 -7 -4 -7 15 -10 82 -14 12
-1 22 -6 22 -12 0 -5 3 -6 7 -3 3 4 12 2 20 -4 8 -7 13 -8 13 -1 0 5 9 8 20 5
11 -3 20 -10 20 -17 0 -6 5 -4 10 4 8 12 10 12 10 1 0 -8 7 -11 20 -8 11 3 23
1 26 -5 3 -5 15 -8 25 -5 10 3 22 1 25 -4 3 -5 18 -9 33 -9 15 0 33 -6 40 -13
11 -10 12 -9 6 3 -7 12 -6 13 6 3 9 -7 36 -14 61 -15 25 -2 44 -6 41 -10 -5
-9 7 -11 50 -10 15 0 27 -3 27 -7 0 -8 16 -11 55 -12 11 0 22 -4 25 -10 4 -5
23 -10 43 -11 21 -1 34 -5 30 -11 -4 -6 0 -8 10 -4 8 3 21 0 27 -8 8 -10 18
-11 36 -4 17 6 23 6 19 -1 -4 -6 5 -10 19 -10 14 0 26 -6 26 -12 0 -9 4 -8 10
2 7 11 10 11 10 2 0 -7 4 -11 8 -8 5 3 19 0 33 -7 13 -7 38 -14 54 -16 17 -1
32 -7 33 -12 2 -5 17 -9 33 -9 16 0 29 -4 29 -8 0 -7 16 -11 58 -14 6 -1 12
-5 12 -10 0 -4 12 -8 26 -8 14 0 23 -4 20 -9 -3 -4 6 -7 19 -5 14 1 32 -4 40
-13 12 -11 15 -11 15 -1 0 8 3 9 8 3 9 -13 71 -37 100 -38 12 -1 22 -6 22 -13
0 -7 8 -10 20 -7 11 3 20 1 20 -4 0 -10 8 -12 54 -16 13 -1 22 -5 19 -9 -4 -7
20 -12 40 -9 4 0 7 -7 7 -17 0 -14 2 -15 10 -2 5 8 10 10 10 3 0 -6 9 -9 20
-6 11 3 20 0 20 -6 0 -6 8 -11 17 -11 9 0 25 -8 36 -18 11 -9 17 -11 13 -4
-10 17 9 15 24 -3 7 -8 25 -15 41 -15 16 0 29 -4 29 -8 0 -5 7 -9 15 -10 8 -1
22 -3 30 -4 8 -1 15 -5 15 -10 0 -5 5 -6 10 -3 6 3 10 2 10 -4 0 -6 7 -7 17
-4 12 5 14 3 8 -7 -6 -10 -4 -12 8 -7 9 3 23 0 31 -8 11 -11 16 -12 19 -2 4 9
6 9 6 0 1 -7 10 -13 21 -13 11 0 20 -4 20 -10 0 -5 6 -7 14 -4 7 3 20 -1 27
-8 13 -12 23 -16 54 -22 32 -7 55 -19 55 -29 0 -7 4 -6 10 3 7 11 10 11 10 2
0 -7 8 -12 18 -10 9 2 16 -2 15 -8 -1 -6 11 -10 28 -9 18 1 33 -4 36 -12 3 -7
14 -13 24 -13 10 0 19 -5 19 -11 0 -8 5 -8 15 1 13 11 19 7 17 -11 -1 -4 8 -5
18 -2 12 3 20 0 20 -7 0 -7 7 -10 15 -6 8 3 15 1 15 -5 0 -6 5 -7 10 -4 6 3
10 2 10 -2 0 -5 10 -9 22 -10 11 -1 24 -6 27 -10 7 -10 29 -16 58 -17 11 -1
19 -4 16 -8 -2 -5 4 -8 14 -8 11 0 23 -4 29 -9 5 -5 18 -11 29 -13 11 -1 22
-6 25 -10 3 -4 17 -9 30 -10 14 -2 28 -7 31 -11 4 -5 18 -10 33 -10 14 -1 26
-5 26 -9 0 -5 9 -8 20 -8 11 0 20 -5 20 -11 0 -8 6 -7 17 2 9 8 14 10 11 4 -3
-5 9 -17 28 -26 18 -9 31 -12 28 -8 -8 14 4 11 31 -7 13 -9 29 -13 35 -9 5 3
10 1 10 -5 0 -6 5 -8 10 -5 6 3 10 1 10 -5 0 -6 5 -8 10 -5 6 4 24 -1 42 -9
38 -19 41 -20 33 -3 -4 6 0 4 8 -6 9 -10 21 -15 31 -11 9 3 16 2 16 -3 0 -8
15 -12 58 -15 6 -1 12 -5 12 -10 0 -4 11 -8 25 -8 14 0 25 -6 25 -12 0 -9 4
-8 10 2 6 10 10 11 10 3 0 -8 11 -11 30 -9 17 2 30 0 30 -4 0 -4 7 -11 16 -14
9 -4 13 -2 8 5 -3 6 5 3 20 -6 20 -14 26 -14 26 -4 0 12 2 12 9 1 4 -8 11 -13
15 -13 3 1 7 0 9 0 1 -1 17 -2 34 -4 18 -1 38 -7 45 -12 7 -6 22 -7 33 -3 11
4 28 3 38 -2 9 -5 22 -6 27 -3 6 3 10 2 10 -2 0 -5 12 -8 28 -7 15 1 37 -3 49
-7 13 -5 25 -4 29 2 4 6 11 6 21 -2 11 -10 16 -10 23 0 4 8 10 9 13 4 9 -14
67 -14 67 0 0 9 2 9 8 0 7 -11 49 -11 290 -1 23 1 42 5 42 9 0 4 14 6 30 5 17
-1 30 1 30 6 0 4 3 7 8 7 29 -5 62 3 56 12 -4 7 0 9 14 5 11 -4 23 -2 26 3 4
6 13 8 21 4 8 -3 15 0 15 7 0 7 7 10 15 6 8 -3 15 -1 15 3 0 5 7 12 16 15 9 3
12 2 8 -5 -7 -12 38 11 47 25 4 5 11 6 17 2 5 -3 13 1 16 10 3 8 10 12 16 9 5
-3 10 2 10 11 0 14 3 15 12 6 9 -9 17 -6 34 13 12 13 24 22 26 19 3 -2 17 7
32 21 15 14 32 25 37 25 6 0 24 15 41 33 18 17 26 23 18 12 -7 -11 1 -5 17 12
17 18 36 33 42 33 6 0 11 7 11 15 0 9 6 12 17 8 11 -4 14 -3 9 5 -4 7 -3 12 3
12 5 0 38 27 73 60 34 33 68 60 75 60 8 0 10 7 6 18 -3 9 -3 14 1 10 11 -9 46
23 39 35 -3 6 -1 7 5 3 7 -4 35 16 66 49 30 30 59 55 65 55 6 0 11 7 11 15 0
9 6 12 17 8 9 -4 14 -2 11 3 -6 9 13 32 29 37 5 1 7 6 5 11 -2 5 5 5 15 2 9
-4 14 -4 11 0 -10 9 20 36 32 29 6 -4 9 -3 8 2 -5 14 36 48 57 48 11 -1 23 4
27 10 5 7 8 7 8 -1 0 -19 80 1 80 20 0 6 5 4 10 -4 6 -9 10 -10 10 -3 0 11 42
31 47 22 1 -2 9 5 17 16 12 15 16 16 16 5 1 -13 2 -13 13 1 13 18 12 17 45 25
12 4 22 10 22 15 0 5 7 6 15 3 8 -4 15 -2 15 4 0 5 16 13 35 16 19 4 35 11 35
15 0 5 14 11 31 15 20 4 28 10 23 17 -4 8 -3 9 4 5 7 -4 18 -4 25 1 6 4 19 8
27 10 8 1 16 6 18 12 2 5 10 7 18 4 8 -3 14 0 14 7 0 6 5 8 10 5 6 -3 10 -2
10 4 0 6 7 8 15 5 8 -4 15 -1 15 5 0 6 8 11 18 11 10 0 27 7 38 15 12 8 24 11
28 8 3 -3 6 -1 6 7 0 10 3 10 16 0 12 -11 15 -11 12 1 -2 8 5 14 17 14 11 0
23 4 26 8 3 5 14 9 23 11 10 1 22 9 27 17 7 11 9 11 9 0 0 -11 3 -11 15 -1 8
7 15 9 15 4 0 -4 7 1 16 12 8 10 13 13 9 7 -8 -17 7 -17 24 -1 11 11 12 10 6
-1 -6 -11 -3 -11 14 1 13 9 34 14 48 12 17 -3 22 -1 17 7 -5 9 -1 10 14 7 12
-4 22 -2 22 3 0 6 8 5 20 -1 17 -9 19 -8 13 7 -6 16 -5 16 11 4 12 -10 20 -11
24 -4 4 5 22 10 40 9 17 -1 32 2 32 6 0 4 7 5 15 2 8 -4 21 -1 29 5 7 6 16 8
20 4 10 -10 48 -14 42 -5 -3 5 1 9 9 9 8 0 15 -4 15 -9 0 -4 5 -8 11 -8 5 0 8
3 6 8 -7 10 65 9 82 -2 9 -6 12 -5 8 1 -4 7 21 11 71 12 42 0 89 3 105 5 15 2
30 0 32 -4 3 -5 14 -6 25 -3 11 3 17 10 13 16 -4 6 -1 7 8 1 24 -14 51 -16 43
-2 -6 10 -4 10 8 0 11 -9 18 -10 23 -2 4 7 12 7 26 0 14 -8 19 -7 19 1 0 8 4
8 15 -1 12 -10 15 -10 15 1 0 11 2 11 10 -1 5 -8 10 -10 10 -5 0 14 43 14 52
1 5 -7 8 -5 8 4 0 13 1 13 10 0 5 -8 10 -10 10 -4 0 6 11 10 25 9 14 -2 25 1
25 6 0 6 6 7 13 2 17 -11 31 -10 39 2 5 7 8 7 8 0 0 -9 41 -12 60 -5 3 1 16 1
29 0 16 -1 21 2 16 11 -6 9 -4 10 6 3 17 -11 79 -12 73 -2 -3 5 0 8 5 8 6 0
11 -5 11 -11 0 -6 8 -8 18 -5 9 3 36 7 60 10 31 4 41 2 36 -7 -5 -9 -4 -9 6 0
7 6 19 9 28 6 11 -5 13 -2 7 6 -6 10 -3 11 14 2 16 -9 21 -9 21 1 0 9 3 9 10
-2 7 -11 10 -11 10 -2 0 10 5 10 20 2 14 -7 20 -7 20 0 0 5 5 10 11 10 5 0 8
-4 4 -9 -3 -6 6 -7 22 -2 16 5 38 6 51 5 17 -3 21 0 16 8 -5 9 -2 9 9 -1 14
-11 17 -11 17 0 0 11 2 11 10 -1 9 -13 10 -13 10 0 0 13 1 13 10 0 8 -12 10
-12 10 -1 0 11 3 11 17 0 9 -8 14 -9 11 -4 -4 7 18 12 60 13 114 4 137 7 151
16 10 6 12 6 7 -2 -4 -7 -1 -12 8 -12 8 0 17 6 19 13 4 9 6 9 6 -1 1 -10 6
-10 21 -2 11 6 20 7 20 2 0 -5 7 -9 15 -9 8 0 12 4 9 9 -7 11 -1 10 31 -2 22
-8 26 -8 22 4 -5 11 0 13 24 6 20 -6 29 -5 29 3 0 7 4 6 10 -3 8 -12 11 -13
19 -1 7 11 9 11 14 0 3 -8 6 -9 6 -3 1 7 12 9 27 6 20 -4 25 -2 19 8 -6 10 -4
11 6 4 19 -12 72 -11 81 1 5 6 8 4 8 -5 0 -13 1 -13 10 0 8 12 10 12 10 1 0
-9 4 -10 13 -4 16 13 47 12 47 -1 0 -6 5 -4 10 4 9 13 10 13 10 0 0 -10 3 -11
8 -4 11 17 35 22 55 12 12 -6 17 -5 17 4 0 9 3 9 10 -2 5 -8 10 -10 10 -5 0 6
19 10 43 9 23 -1 45 4 49 10 5 8 8 7 8 -1 0 -7 5 -13 11 -13 5 0 7 6 3 13 -6
9 -5 9 7 0 12 -10 18 -10 27 -1 9 9 12 9 12 0 0 -7 5 -12 11 -12 5 0 8 3 6 8
-3 4 6 8 19 8 13 1 24 -3 24 -10 0 -7 3 -6 9 2 4 8 12 14 16 14 4 0 12 -6 16
-14 6 -8 9 -9 9 -2 0 7 10 12 23 13 12 0 29 1 37 1 8 0 45 0 83 -2 37 -2 67 0
67 4 0 4 14 5 31 1 21 -4 34 -1 40 8 7 11 9 11 9 -3 0 -10 5 -18 11 -18 5 0 7
5 3 12 -5 7 -2 9 8 5 9 -3 21 0 28 6 8 7 10 7 7 1 -4 -7 5 -11 23 -11 17 0 30
5 30 11 0 7 3 8 8 1 9 -14 72 -14 72 0 0 5 4 4 9 -4 5 -8 14 -10 22 -5 18 11
49 13 43 2 -6 -9 25 -6 42 5 6 3 14 3 18 0 4 -4 16 -8 27 -10 14 -2 18 1 13 9
-6 10 -4 11 7 0 18 -16 63 -16 53 1 -6 9 -3 8 8 -1 20 -16 120 -23 110 -7 -3
5 2 4 11 -4 14 -11 17 -11 18 0 0 8 4 5 9 -6 5 -11 9 -14 9 -7 1 6 8 12 17 12
9 0 12 -5 8 -12 -5 -7 -3 -8 7 -2 21 12 59 13 59 0 0 -6 5 -4 10 4 5 8 10 10
10 4 0 -6 19 -12 43 -13 111 -4 127 -6 127 -14 0 -5 7 -4 15 3 12 10 15 10 15
0 0 -9 3 -10 14 -1 10 9 16 8 26 -4 10 -12 15 -13 21 -3 6 9 13 8 30 -7 12
-11 19 -15 16 -8 -4 6 -3 14 3 18 5 3 10 1 10 -5 0 -6 5 -8 10 -5 5 3 10 0 10
-7 0 -9 3 -9 10 2 6 9 10 10 10 3 0 -7 11 -10 27 -9 16 2 40 0 55 -5 18 -5 29
-3 32 4 2 7 5 4 5 -5 1 -19 21 -20 33 -3 5 6 8 6 8 -1 0 -6 16 -11 36 -12 20
-1 42 -6 48 -12 9 -6 16 -6 24 2 7 7 12 8 12 2 0 -5 12 -11 27 -12 15 -1 30
-8 35 -15 6 -9 8 -8 8 3 0 10 3 11 12 2 8 -8 17 -8 31 -1 12 7 17 7 13 1 -3
-5 1 -13 10 -16 23 -9 26 -8 18 6 -6 9 -3 9 9 -1 9 -7 24 -11 32 -7 8 3 15 1
15 -5 0 -6 7 -9 15 -5 8 3 15 0 15 -7 0 -8 3 -8 9 2 7 11 11 10 20 -5 6 -11
11 -14 11 -8 0 6 7 11 15 11 8 0 12 -4 9 -9 -5 -7 33 -13 64 -9 6 1 12 -2 12
-6 0 -4 16 -9 37 -10 20 -1 39 -7 43 -13 10 -15 21 -15 31 2 7 10 9 10 9 1 0
-7 9 -13 19 -13 11 0 23 -5 26 -10 4 -7 13 -6 27 1 12 6 18 7 14 1 -3 -5 1
-12 8 -15 8 -3 17 -1 20 6 3 9 5 8 5 -1 1 -7 6 -10 11 -7 6 3 10 2 10 -4 0 -5
9 -8 20 -6 11 2 20 0 20 -5 0 -4 10 -6 22 -2 11 3 19 1 15 -4 -3 -5 7 -10 21
-11 35 -2 54 -7 71 -17 11 -7 12 -6 6 5 -7 11 -5 11 10 -1 10 -8 26 -14 36
-12 9 2 20 -2 23 -7 4 -6 13 -8 21 -4 10 3 15 -1 15 -12 0 -9 5 -13 10 -10 6
3 10 -1 10 -10 0 -9 4 -13 10 -10 7 4 7 -3 0 -20 -7 -17 -7 -24 0 -20 6 4 10
-5 10 -19 0 -14 5 -26 11 -26 5 0 7 -4 4 -10 -3 -5 -2 -10 4 -10 5 0 8 -9 6
-20 -3 -13 0 -18 7 -14 7 5 9 1 5 -9 -4 -10 -1 -17 5 -17 6 0 8 -3 5 -7 -4 -3
1 -12 11 -20 10 -9 11 -11 2 -7 -13 7 -13 5 -1 -9 7 -9 10 -17 5 -17 -5 0 -4
-4 1 -8 18 -13 42 -47 26 -38 -8 6 -7 0 4 -18 9 -14 21 -23 26 -20 5 3 6 -2 3
-11 -4 -9 2 -25 11 -35 10 -11 14 -20 9 -20 -5 0 -4 -4 2 -8 6 -4 19 -22 28
-40 9 -18 21 -30 26 -27 6 3 7 -1 4 -9 -3 -9 -1 -16 6 -16 6 0 8 -4 5 -10 -3
-5 1 -10 9 -10 9 0 16 -5 16 -11 0 -7 10 -20 22 -30 11 -11 18 -19 14 -19 -4
0 -1 -7 8 -15 8 -8 19 -15 25 -15 5 0 13 -9 16 -20 3 -11 11 -20 16 -20 6 0 8
-4 5 -9 -3 -5 2 -8 12 -7 9 0 16 -5 14 -12 -1 -8 2 -11 8 -7 5 3 10 1 10 -5 0
-7 7 -9 16 -6 8 3 12 2 9 -4 -3 -6 -1 -10 5 -10 7 0 9 -7 6 -16 -3 -9 -2 -12
5 -9 6 4 19 -1 29 -10 11 -10 24 -14 32 -9 7 4 10 4 6 0 -10 -11 14 -34 29
-29 8 3 13 -3 14 -13 0 -12 3 -14 6 -6 3 9 10 7 24 -9 10 -12 19 -17 19 -10 0
7 10 3 22 -9 12 -11 28 -21 35 -21 33 -3 38 -6 36 -16 -2 -7 6 -10 17 -8 11 2
22 0 25 -6 4 -5 15 -9 26 -9 10 0 19 -4 19 -8 0 -4 9 -9 20 -10 11 -1 29 -3
40 -4 11 -1 20 -5 20 -9 0 -6 58 -20 92 -23 3 -1 9 -4 13 -8 4 -4 13 -4 21 -1
8 3 22 -1 31 -8 13 -11 17 -11 20 -2 4 10 8 10 19 -1 7 -8 23 -12 34 -9 12 3
20 0 20 -7 0 -10 3 -10 14 -1 9 7 15 8 18 2 1 -6 23 -11 48 -12 25 -2 48 -7
52 -13 5 -8 8 -7 8 1 0 8 9 9 30 3 17 -5 28 -5 25 0 -3 4 4 6 15 3 11 -3 23
-10 26 -15 3 -5 11 -4 19 2 9 8 15 8 20 0 3 -5 11 -10 16 -10 6 0 7 5 3 11 -4
8 -1 8 12 2 11 -6 45 -9 77 -8 31 2 57 -2 57 -7 0 -5 5 -6 12 -2 18 11 88 11
88 -1 0 -5 4 -4 9 4 6 9 11 10 15 2 4 -6 13 -8 19 -4 20 12 37 12 37 0 0 -7 5
-5 10 3 5 8 10 10 10 4 0 -6 7 -11 15 -11 8 0 12 4 9 8 -2 4 5 7 16 6 11 -1
20 -5 20 -10 0 -6 5 -6 13 0 6 5 35 8 62 7 28 -1 57 2 64 6 8 5 25 4 38 -1 13
-5 23 -5 23 -1 0 4 26 8 58 9 31 1 69 4 84 8 30 6 55 10 133 20 28 4 56 12 64
19 12 9 13 8 6 -4 -7 -12 -6 -13 6 -3 9 7 25 11 38 8 12 -2 19 0 16 4 -2 5 4
11 15 14 11 3 20 0 20 -6 0 -8 3 -7 9 1 4 8 11 13 15 13 26 -4 46 1 41 8 -3 6
4 8 15 6 11 -2 20 2 20 8 0 8 3 8 9 -1 6 -11 10 -10 15 4 3 9 9 14 13 11 3 -3
20 0 38 8 19 7 36 11 39 7 3 -3 6 1 6 8 0 7 3 11 6 8 3 -4 17 0 31 7 15 8 31
11 36 8 6 -3 7 -1 3 5 -5 8 1 12 14 12 12 0 18 4 15 10 -4 6 1 7 11 3 12 -4
15 -3 10 5 -4 8 -2 10 7 6 8 -3 22 2 31 11 12 12 16 13 16 3 0 -10 3 -10 9 2
6 8 8 17 5 21 -2 4 5 5 16 2 12 -3 20 0 20 6 0 7 4 10 10 6 5 -3 18 3 30 15
11 11 20 17 20 14 0 -4 6 -1 13 5 8 6 17 7 21 3 4 -4 6 -2 4 5 -2 6 1 10 5 10
5 -1 13 6 18 16 6 9 15 17 20 17 6 0 23 9 39 20 15 11 31 16 35 12 5 -4 5 -1
1 6 -5 9 -1 15 14 19 13 3 19 11 16 20 -3 8 -1 11 4 8 5 -3 18 -1 27 4 10 6
14 11 10 11 -4 0 -2 6 5 14 7 8 16 12 20 10 4 -3 30 18 58 46 28 27 53 50 57
50 3 0 20 16 38 34 18 19 36 32 40 28 5 -4 5 1 2 11 -5 12 -1 17 14 17 11 0
17 5 14 10 -3 6 4 14 17 19 13 6 19 10 15 10 -4 1 -2 7 5 15 7 8 16 12 21 9 4
-2 7 3 7 11 0 9 7 16 16 16 8 0 13 3 11 8 -2 4 4 15 15 25 10 9 18 15 18 12 0
-3 27 21 60 54 32 32 61 57 64 54 2 -2 7 5 11 16 3 12 11 19 16 16 5 -4 9 -1
9 4 0 6 7 11 16 11 11 0 14 5 10 17 -4 10 -4 14 0 10 5 -4 14 3 22 15 11 19
12 19 7 3 -4 -15 2 -11 24 13 16 17 35 32 41 32 6 0 9 4 6 9 -3 5 8 14 24 21
16 7 27 16 24 21 -3 5 0 9 6 9 6 0 8 5 4 12 -4 6 -3 8 3 5 6 -4 22 2 35 13 14
11 29 16 34 12 5 -4 2 2 -6 12 -8 11 -10 17 -4 13 7 -4 24 6 40 21 15 15 24
20 19 12 -8 -13 -6 -13 8 -1 9 7 14 17 11 22 -3 5 3 6 12 2 12 -4 15 -3 10 5
-4 7 -2 12 4 12 6 0 8 5 4 12 -6 10 -3 9 8 0 14 -11 19 -10 33 12 10 14 24 26
32 26 8 0 11 5 7 12 -5 8 -2 9 9 5 9 -3 16 -3 16 1 -3 17 2 32 9 31 19 -3 33
2 27 10 -5 10 32 27 49 23 5 -2 6 4 3 12 -4 9 -1 15 6 13 7 -1 11 4 9 12 -3
12 -1 12 14 0 10 -8 15 -9 11 -2 -9 14 26 36 38 25 5 -4 6 -2 3 3 -3 6 0 16 8
23 8 7 14 10 14 7 0 -3 6 0 14 7 8 7 11 18 8 23 -3 6 3 3 14 -5 10 -8 16 -11
12 -6 -8 10 15 36 31 36 6 0 11 5 11 11 0 6 7 8 16 5 8 -3 13 -2 11 2 -6 13
41 52 64 52 5 0 7 5 4 10 -3 6 1 10 9 10 9 0 16 6 16 13 0 8 4 7 10 -3 8 -13
10 -12 10 3 0 15 11 21 32 18 4 0 5 6 2 14 -6 14 11 20 38 16 5 0 7 4 5 11 -1
7 4 12 11 13 8 0 20 9 28 19 8 11 14 16 14 10 0 -5 7 0 16 11 8 11 19 21 24
21 6 1 18 2 28 3 15 1 15 3 2 11 -13 8 -12 10 3 10 9 0 17 5 17 10 0 6 18 18
40 27 22 10 40 23 40 30 0 6 5 15 12 19 7 4 8 3 4 -4 -14 -23 41 12 93 59 9 8
23 13 31 11 7 -3 10 0 6 7 -4 6 -2 11 3 11 6 0 20 9 31 20 12 12 20 15 20 8 0
-7 5 -5 11 5 5 9 16 17 23 17 8 0 17 7 20 16 3 8 10 13 15 10 5 -3 12 1 15 10
4 10 12 14 23 10 10 -4 14 -4 11 0 -9 9 13 30 40 38 12 4 22 12 22 17 0 5 7 9
15 9 9 0 18 6 21 14 3 8 12 12 20 9 8 -3 14 -1 14 4 0 6 17 18 38 29 20 10 41
25 45 32 4 6 15 12 22 12 8 0 15 3 15 8 0 4 23 17 50 30 28 13 50 28 50 34 0
6 3 9 6 5 4 -3 13 1 21 9 8 8 18 12 23 9 5 -3 12 0 16 6 5 8 3 9 -6 4 -9 -5
-11 -4 -6 3 4 7 16 12 27 12 10 0 19 5 19 10 0 6 7 10 15 10 9 0 18 7 21 15 4
8 10 12 15 9 5 -3 12 2 15 10 3 9 11 13 17 9 5 -3 16 3 24 13 8 10 17 18 21
17 4 0 6 4 4 10 -2 6 4 5 12 -2 13 -11 17 -10 22 3 3 9 13 16 21 16 8 0 11 5
7 12 -5 7 -3 8 5 4 7 -5 19 0 27 10 9 11 13 13 9 4 -4 -8 1 -6 9 4 9 11 16 16
16 10 0 -5 7 0 15 10 8 11 15 17 15 13 0 -4 18 4 40 18 22 14 44 25 50 25 5 0
10 4 10 9 0 6 9 8 21 6 16 -3 18 -1 10 8 -7 10 -5 13 10 14 10 1 26 9 35 17 8
9 24 16 35 16 11 0 17 5 14 10 -3 6 1 10 9 10 9 0 16 5 16 11 0 6 7 9 15 5 8
-3 15 -2 15 3 0 5 14 14 30 21 17 7 30 16 30 21 0 5 9 9 19 9 11 0 27 10 35
22 11 15 16 18 16 8 0 -13 2 -13 9 -1 5 7 14 11 20 7 7 -5 8 -1 4 10 -4 11 -3
15 5 10 6 -3 13 -2 17 4 4 6 11 8 16 5 5 -4 9 -1 9 5 0 6 13 16 30 21 16 6 27
15 24 20 -3 5 2 6 10 3 9 -4 18 1 22 10 3 9 10 13 15 10 5 -3 9 0 9 6 0 7 6
10 14 7 8 -3 17 1 20 9 3 9 10 12 16 9 5 -3 10 -1 10 4 0 6 7 11 15 11 8 0 15
5 15 11 0 5 4 8 9 5 5 -4 11 -1 13 4 2 6 12 13 23 14 11 2 19 9 17 16 -1 6 2
9 7 6 5 -4 16 0 24 8 8 8 17 12 21 9 3 -4 6 -1 6 5 0 7 5 12 10 12 6 0 28 11
51 25 22 14 45 23 51 19 7 -4 8 -3 4 4 -4 7 -2 12 4 12 6 0 8 4 5 10 -3 6 1 7
9 4 9 -4 18 1 22 10 3 9 10 13 15 11 4 -3 17 2 27 12 10 10 25 19 33 21 7 2
17 8 20 14 4 6 12 7 19 3 8 -5 11 -4 6 3 -3 6 2 13 13 17 10 3 29 14 41 25 12
11 27 17 33 13 6 -3 7 -1 3 5 -4 7 -1 12 8 12 9 0 16 5 16 11 0 5 5 7 10 4 6
-3 10 -1 10 4 0 6 6 11 14 11 8 0 17 7 20 16 4 9 9 14 12 11 8 -8 34 18 34 35
0 10 2 10 9 -1 7 -11 10 -9 16 8 4 13 9 20 12 18 7 -8 70 57 65 67 -3 5 0 6 6
2 14 -8 120 96 114 114 -3 7 -1 10 4 8 5 -3 20 6 34 20 14 13 19 22 13 18 -20
-11 -15 3 12 32 14 15 25 32 25 39 0 6 7 19 16 27 12 12 12 16 2 16 -11 0 -11
2 0 9 7 4 14 18 15 29 1 12 5 22 10 22 5 0 6 7 3 16 -3 9 -2 12 4 9 7 -4 9 3
6 19 -3 14 -1 26 3 26 5 0 7 11 6 25 -2 14 0 27 5 30 4 2 8 30 9 61 0 31 6 63
11 70 8 8 8 14 1 19 -11 6 -12 15 -11 88 0 20 -4 37 -9 37 -5 0 -7 9 -4 20 3
11 1 20 -4 20 -5 0 -10 6 -10 13 0 20 -39 100 -62 126 -11 13 -18 28 -14 34 3
5 2 7 -4 4 -5 -3 -15 3 -23 13 -8 10 -18 16 -23 13 -6 -3 -7 -2 -4 4 6 10 -35
53 -51 53 -4 0 -14 9 -22 20 -8 11 -20 20 -27 20 -7 0 -13 5 -13 10 0 6 -7 10
-15 10 -8 0 -15 5 -15 10 0 6 -7 10 -15 10 -8 0 -15 4 -15 10 0 5 -3 9 -7 9
-20 -3 -34 2 -28 11 3 6 -3 10 -14 10 -12 0 -21 5 -21 10 0 6 -9 10 -19 10
-11 0 -21 3 -23 8 -8 17 -88 63 -99 56 -7 -4 -10 -3 -5 4 3 6 -7 16 -24 24
-16 7 -30 16 -30 20 0 5 -10 8 -22 8 -17 0 -19 3 -10 9 10 6 5 11 -18 19 -21
8 -29 16 -24 24 5 9 2 8 -10 -1 -12 -11 -16 -11 -14 -2 2 7 -6 18 -16 24 -25
16 -55 38 -77 59 -9 9 -20 14 -23 11 -3 -4 -6 -1 -6 5 0 7 -6 12 -14 12 -8 0
-18 9 -21 20 -4 11 -11 18 -16 15 -5 -4 -12 1 -15 9 -3 9 -12 16 -20 16 -8 0
-14 5 -14 10 0 6 -16 20 -35 31 -19 12 -32 26 -28 32 3 6 1 7 -5 3 -7 -4 -12
-3 -12 3 0 5 -9 13 -20 16 -11 3 -20 13 -20 21 0 8 -4 13 -9 10 -5 -3 -12 1
-15 10 -4 10 -12 14 -22 10 -15 -6 -15 -4 -3 11 8 9 9 14 4 11 -12 -7 -53 13
-55 27 -1 6 -6 9 -11 8 -5 -2 -9 2 -9 8 0 15 -26 39 -34 32 -3 -4 -6 2 -6 12
0 10 -3 16 -6 12 -3 -3 -32 21 -65 54 -32 32 -64 59 -70 59 -7 0 -10 3 -7 6 3
3 -40 52 -96 109 -55 57 -107 111 -114 120 -7 8 -17 13 -22 10 -6 -4 -7 2 -3
11 4 12 3 15 -5 10 -7 -4 -12 -2 -12 6 0 7 -13 24 -30 38 -16 14 -30 30 -30
37 0 7 -5 13 -11 13 -5 0 -7 4 -4 10 3 5 -1 10 -9 10 -9 0 -16 7 -16 15 0 8
-9 20 -20 27 -11 7 -20 16 -20 21 0 4 -10 19 -22 32 -38 40 -49 55 -42 55 4 0
-2 8 -13 18 -11 9 -22 25 -26 34 -3 10 -11 18 -16 18 -6 0 -7 7 -4 17 4 11 3
14 -5 9 -11 -6 -17 5 -13 27 0 4 -6 7 -14 7 -13 0 -17 6 -14 27 0 3 -6 10 -15
15 -9 5 -16 18 -16 28 0 11 -5 20 -10 20 -6 0 -10 6 -8 14 2 8 -6 22 -17 31
-11 9 -14 14 -7 10 15 -8 15 0 0 28 -6 12 -13 38 -15 57 -2 19 -8 39 -13 45
-5 6 -5 17 0 25 5 8 6 19 2 24 -10 16 -10 46 0 46 5 0 6 6 1 13 -11 18 -10 87
2 87 5 0 4 4 -3 9 -15 9 -15 20 0 39 7 8 7 12 0 12 -11 0 -11 18 1 38 5 6 4
12 0 12 -5 0 -9 9 -9 20 0 11 4 20 9 20 5 0 5 6 -1 13 -7 8 -7 18 -2 27 5 9 5
19 -1 26 -7 8 -7 14 0 18 12 8 14 356 2 356 -12 0 -8 33 4 42 7 5 6 8 0 8 -6
0 -12 12 -13 26 -1 15 -8 34 -15 42 -9 13 -9 14 1 8 17 -10 15 5 -4 32 -9 13
-11 22 -4 22 6 0 8 5 5 10 -4 6 -10 8 -14 5 -5 -2 -7 7 -5 20 1 14 -3 25 -9
25 -8 0 -7 3 1 9 11 7 11 9 -2 14 -9 4 -16 13 -16 20 0 28 -63 135 -82 140
-11 3 -17 10 -14 16 4 5 -1 14 -10 19 -9 5 -15 13 -14 18 2 5 -7 14 -19 20
-11 6 -18 14 -13 19 4 4 -1 5 -10 2 -12 -4 -18 -1 -18 8 0 8 -7 15 -15 15 -8
0 -15 4 -15 10 0 5 -7 7 -15 4 -8 -4 -15 -2 -15 4 0 5 -7 13 -16 16 -8 3 -12
2 -9 -3 3 -5 -8 -3 -24 5 -28 14 -50 44 -31 44 5 0 7 9 5 21 -3 14 0 19 9 16
9 -4 12 2 10 19 -1 13 3 24 9 24 5 0 7 3 4 7 -4 3 -2 12 3 19 6 6 13 22 15 35
3 12 8 25 13 28 5 3 8 14 7 23 -2 9 3 19 10 22 7 2 13 17 13 32 0 16 5 30 11
32 6 2 11 12 11 22 0 10 6 25 13 32 12 13 17 33 20 75 1 11 5 19 10 16 4 -2 8
2 9 9 0 7 2 18 2 23 1 6 5 16 9 22 5 7 6 17 2 22 -3 5 0 13 6 17 8 5 9 3 4 -6
-5 -8 -4 -11 3 -6 6 3 9 15 7 26 -2 11 2 20 8 20 7 0 6 4 -3 10 -13 8 -13 10
2 10 11 0 15 5 12 15 -4 9 -1 15 7 15 10 0 10 3 2 11 -9 9 -8 16 3 27 9 8 13
23 11 34 -3 10 -1 16 4 12 5 -3 9 3 9 13 0 11 6 25 13 32 10 11 9 12 -3 6 -13
-8 -13 -6 -1 8 7 9 11 24 7 32 -3 9 -2 14 3 11 14 -9 21 20 9 32 -8 8 -7 13 5
18 9 3 14 10 11 15 -3 5 1 9 8 9 10 0 10 2 -1 9 -9 6 -10 11 -2 15 6 4 9 12 6
17 -4 5 0 9 7 9 9 0 9 3 -2 10 -12 7 -12 10 -1 10 7 0 11 6 8 14 -3 7 -1 18 3
22 5 5 10 28 12 52 2 23 6 42 9 42 4 0 7 12 8 28 1 48 7 87 15 100 4 7 2 12
-6 12 -10 0 -10 2 1 9 8 5 12 15 9 22 -3 8 -2 23 2 34 4 11 3 26 -4 34 -8 11
-8 13 0 8 14 -8 23 32 14 59 -4 10 -3 24 2 31 6 7 5 14 -2 18 -6 3 -7 12 -3
18 14 22 14 49 1 41 -10 -6 -10 -4 -2 7 6 8 10 24 9 37 -1 12 3 22 9 22 6 0 2
7 -8 15 -18 14 -18 15 -2 15 11 0 14 4 10 12 -13 21 -14 59 -1 51 9 -5 9 -3 2
8 -6 8 -10 40 -9 71 0 36 -3 55 -9 51 -6 -4 -7 -1 -1 8 13 21 14 39 2 39 -6 0
-5 6 2 15 9 10 9 15 1 15 -13 0 -10 22 4 32 6 5 6 8 -1 8 -6 0 -11 16 -12 35
-1 19 -2 51 -3 70 0 22 -5 32 -12 28 -6 -4 -7 -1 -1 8 13 21 14 39 1 39 -8 0
-7 3 1 9 11 7 11 9 -2 14 -12 5 -14 12 -7 30 5 13 6 29 1 36 -4 7 -6 26 -5 42
1 16 -2 29 -9 29 -6 0 -4 5 4 10 12 7 12 10 1 10 -7 0 -11 6 -7 15 3 8 0 15
-7 15 -9 0 -9 2 0 8 10 6 9 14 -1 34 -10 19 -11 29 -3 37 8 8 8 11 0 11 -7 0
-10 9 -8 20 2 11 -2 20 -8 20 -7 0 -6 4 3 10 11 7 11 10 2 10 -7 0 -10 5 -6
11 3 6 0 15 -7 20 -12 7 -12 9 0 9 11 0 11 3 0 16 -10 12 -10 17 0 23 10 6 9
10 -2 14 -10 4 -13 13 -10 26 3 12 1 21 -5 21 -6 0 -9 9 -7 20 5 28 -5 51 -19
43 -6 -4 -5 1 3 11 9 11 11 20 5 24 -5 4 -9 14 -9 22 0 8 -4 18 -10 22 -6 5
-5 8 3 8 10 0 10 5 1 23 -7 12 -14 38 -16 57 -2 19 -9 37 -15 41 -7 4 -7 9 0
13 12 7 -8 56 -23 56 -5 0 -4 4 3 9 11 7 10 11 -2 24 -10 10 -12 18 -6 22 6 4
8 11 4 16 -3 5 -10 6 -16 3 -6 -4 -6 2 1 15 8 15 9 21 1 21 -6 0 -9 4 -5 9 3
5 1 12 -5 16 -6 4 -8 10 -5 15 3 5 1 11 -5 15 -6 4 -8 10 -5 15 3 5 0 21 -7
37 -6 15 -12 35 -13 45 -1 9 -6 25 -10 35 -4 10 -9 27 -10 37 -1 11 -7 22 -14
24 -9 3 -9 7 0 18 9 11 9 14 0 14 -7 0 -10 4 -6 9 3 5 1 12 -5 16 -6 4 -8 11
-5 16 4 5 1 9 -5 9 -6 0 -8 5 -5 10 4 6 0 24 -9 40 -8 17 -10 27 -4 24 5 -4 2
5 -7 19 -9 15 -14 31 -10 37 3 5 1 10 -5 10 -6 0 -8 5 -5 10 3 6 -1 13 -10 16
-13 6 -14 8 -3 15 7 5 8 9 3 9 -6 0 -11 10 -12 22 -1 11 -6 24 -11 27 -5 3 -8
14 -6 24 1 9 -4 23 -11 31 -11 10 -11 16 -2 26 9 10 9 11 0 6 -8 -5 -13 -1
-13 9 0 9 -4 13 -10 10 -6 -3 -7 1 -4 10 4 8 0 23 -7 32 -10 11 -10 14 -2 9 9
-5 11 -2 7 8 -3 9 -10 13 -15 10 -5 -3 -6 2 -3 10 3 9 1 16 -5 16 -6 0 -8 7
-5 15 4 8 2 15 -3 15 -5 0 -10 9 -11 20 -4 44 -6 50 -15 50 -5 0 -6 7 -3 16 4
9 2 13 -5 8 -7 -4 -10 -1 -7 7 3 8 -4 25 -16 38 -11 13 -15 21 -8 17 6 -4 12
-3 12 3 0 5 -6 12 -12 14 -10 4 -9 6 1 6 10 1 9 6 -5 19 -10 9 -21 26 -22 37
-2 11 -9 26 -15 34 -9 11 -9 13 0 8 6 -4 1 14 -12 40 -13 25 -22 50 -19 55 3
4 1 8 -3 8 -5 0 -15 20 -22 45 -7 25 -18 45 -23 45 -6 0 -4 8 3 17 10 11 10
14 2 9 -8 -4 -13 -2 -13 4 0 6 -5 8 -12 4 -7 -4 -8 -3 -4 5 4 6 2 19 -6 28
-11 14 -11 16 2 8 12 -7 13 -6 3 7 -7 8 -9 19 -5 23 4 5 1 4 -7 0 -11 -6 -13
-4 -8 9 4 9 3 15 -2 12 -5 -3 -11 1 -15 9 -3 8 -1 15 5 15 6 0 1 9 -12 21 -13
11 -18 17 -10 14 9 -5 8 1 -4 19 -10 14 -13 26 -9 26 5 0 3 4 -4 9 -7 4 -14
17 -15 29 0 11 -5 18 -9 16 -4 -3 -8 5 -8 18 0 13 -5 29 -11 35 -6 6 -12 19
-14 29 -1 11 -8 18 -13 17 -7 -2 -9 4 -5 13 3 9 2 19 -3 23 -17 11 -41 66 -39
84 2 9 0 15 -4 12 -4 -2 -18 20 -30 50 -15 35 -27 53 -34 48 -7 -4 -7 0 1 9 9
11 9 17 2 20 -6 2 -17 21 -25 43 -8 22 -18 39 -23 38 -6 -1 -8 7 -5 17 3 11 0
20 -6 20 -6 0 -11 7 -11 15 0 8 -9 30 -19 49 -11 19 -17 37 -13 42 4 4 2 4 -5
0 -6 -3 -14 -2 -18 4 -3 5 -1 10 6 10 7 0 5 6 -6 13 -10 8 -15 19 -11 26 4 6
0 14 -9 17 -9 4 -14 13 -11 21 3 8 1 11 -4 8 -6 -3 -10 1 -10 9 0 9 -4 16 -10
16 -5 0 -7 7 -4 15 4 8 1 15 -6 15 -6 0 -8 5 -5 10 3 6 -1 10 -9 10 -9 0 -13
6 -10 14 3 8 0 17 -5 21 -6 3 -9 11 -6 16 4 5 1 9 -6 9 -7 0 -10 3 -6 6 3 4 0
13 -8 21 -8 8 -18 26 -22 41 -3 15 -16 35 -27 45 -12 10 -15 16 -8 12 19 -10
14 9 -7 25 -11 7 -18 17 -15 22 3 4 1 8 -4 8 -6 0 -13 7 -16 16 -4 10 -2 13 7
8 13 -8 -3 15 -40 55 -12 13 -19 30 -16 36 2 7 0 16 -6 20 -6 3 -11 15 -11 26
0 11 -7 19 -16 19 -8 0 -12 5 -9 10 3 6 1 10 -5 10 -6 0 -8 5 -5 10 3 6 1 10
-5 10 -7 0 -10 6 -7 14 3 8 -1 17 -9 20 -9 3 -14 11 -12 18 2 6 -4 20 -14 30
-10 10 -16 24 -12 30 4 6 3 8 -4 4 -6 -3 -13 3 -17 14 -3 11 -11 20 -16 20 -5
0 -8 3 -8 8 4 22 -2 42 -11 37 -5 -3 -10 3 -10 15 0 11 -7 23 -16 27 -13 5
-13 7 -2 14 10 7 9 9 -4 9 -16 0 -23 11 -19 33 0 4 -4 7 -9 7 -6 0 -10 7 -10
16 0 8 -4 12 -10 9 -5 -3 -10 3 -10 14 0 12 -5 21 -11 21 -5 0 -8 4 -4 9 3 6
-3 14 -12 20 -10 6 -13 11 -6 11 7 0 1 12 -12 26 -14 15 -22 31 -18 37 3 5 2
7 -3 4 -6 -3 -16 3 -23 15 -10 16 -10 19 1 13 7 -3 4 1 -6 9 -11 9 -16 16 -11
16 5 0 1 6 -10 13 -11 9 -15 19 -10 27 5 9 4 11 -3 6 -7 -4 -12 -1 -12 8 0 8
-6 19 -13 23 -7 4 -21 25 -32 46 -11 20 -23 37 -27 37 -5 0 -7 6 -5 13 1 6 -3
11 -9 10 -6 -1 -11 5 -12 13 -1 8 -3 21 -4 29 -1 8 -5 12 -10 9 -4 -3 -8 1 -8
8 0 7 -11 26 -25 41 -14 15 -22 27 -18 27 4 0 3 4 -2 8 -6 4 -16 19 -24 34 -8
15 -18 25 -23 22 -4 -3 -8 4 -8 16 0 12 -4 18 -10 15 -5 -3 -10 3 -10 15 0 12
-4 18 -10 15 -5 -3 -10 1 -10 9 0 9 -4 16 -10 16 -5 0 -9 3 -9 8 3 19 -2 33
-11 27 -9 -5 -11 -1 -10 20 1 10 -25 33 -32 28 -4 -2 -6 2 -3 9 3 7 -9 28 -25
47 -17 18 -30 38 -30 43 0 5 -4 6 -10 3 -6 -3 -7 1 -4 9 3 9 1 16 -5 16 -6 0
-11 7 -11 16 0 8 -5 12 -10 9 -6 -3 -10 4 -10 16 0 12 -3 19 -7 16 -9 -10 -43
44 -36 56 3 6 1 7 -5 3 -7 -4 -12 -1 -12 9 0 9 -4 13 -10 10 -5 -3 -10 1 -10
9 0 9 -4 16 -10 16 -5 0 -10 5 -10 11 0 15 -26 39 -34 31 -4 -3 -4 1 0 11 4
11 0 19 -10 23 -9 3 -14 10 -11 14 3 5 1 11 -5 15 -6 4 -7 11 -4 17 4 6 3 9
-2 6 -11 -6 -45 28 -36 36 3 3 0 6 -7 6 -7 0 -9 5 -6 10 3 6 1 10 -5 10 -6 0
-8 5 -4 12 4 7 3 8 -4 4 -6 -4 -16 4 -23 16 -7 13 -19 29 -28 36 -13 11 -13
12 -1 7 10 -4 9 -2 -2 8 -10 8 -18 19 -18 26 0 6 -4 11 -10 11 -5 0 -10 6 -10
14 0 7 -11 21 -24 32 -14 10 -23 21 -20 26 3 4 0 8 -6 8 -6 0 -8 5 -4 12 5 8
2 9 -11 4 -14 -5 -16 -4 -7 7 9 11 6 17 -12 27 -16 8 -22 18 -19 28 4 10 2 13
-5 8 -7 -4 -12 -2 -12 5 0 7 -12 26 -27 42 -16 17 -21 27 -13 23 9 -5 8 -2 -2
7 -10 8 -18 19 -18 25 0 5 -7 12 -15 16 -8 3 -15 10 -15 16 0 7 -14 25 -30 42
-17 16 -28 33 -26 36 2 4 -6 16 -17 27 -11 11 -16 14 -12 6 5 -9 4 -12 -3 -7
-6 3 -9 15 -7 26 2 12 -2 20 -10 20 -16 0 -38 34 -28 44 3 3 -2 6 -12 6 -10 0
-16 3 -12 6 3 4 1 12 -6 20 -30 33 -35 42 -30 48 4 3 1 6 -5 6 -7 0 -12 7 -12
16 0 8 -5 12 -10 9 -9 -6 -14 8 -11 28 0 4 -6 7 -14 7 -8 0 -17 11 -21 25 -3
14 -10 22 -15 19 -5 -3 -9 1 -9 9 0 7 -8 22 -17 33 -10 10 -25 32 -33 48 -8
16 -23 31 -33 34 -14 3 -15 7 -6 18 11 13 2 19 -23 15 -5 0 -8 6 -8 14 0 24
-3 28 -35 59 -16 16 -24 25 -17 21 11 -6 11 -3 0 14 -7 12 -16 21 -20 21 -5 0
-8 6 -8 13 0 7 -9 19 -20 27 -14 10 -16 16 -7 22 8 5 6 8 -6 8 -10 0 -15 5
-12 10 3 6 -1 10 -10 10 -9 0 -13 5 -10 10 3 6 1 10 -6 10 -7 0 -10 3 -6 6 3
4 -4 15 -16 26 -12 11 -16 17 -9 13 6 -3 12 -1 12 4 0 10 -14 15 -33 12 -5 -1
-6 3 -2 8 3 6 -3 19 -15 31 -12 12 -15 20 -7 20 6 1 2 6 -11 13 -12 7 -20 16
-17 19 3 3 -1 11 -10 18 -8 7 -15 19 -15 27 0 7 -6 16 -14 19 -8 3 -17 12 -20
20 -4 10 -1 13 7 8 6 -3 -4 8 -23 26 -19 18 -29 29 -22 25 11 -6 11 -3 0 14
-7 12 -16 21 -20 21 -5 0 -8 7 -8 15 0 9 -6 18 -14 21 -9 3 -12 12 -9 21 4 11
2 14 -5 9 -8 -5 -12 0 -12 14 0 12 -4 18 -10 15 -9 -6 -14 8 -11 28 0 4 -3 7
-9 7 -5 0 -10 6 -10 14 0 8 -7 17 -16 20 -9 3 -14 11 -12 18 2 6 -3 20 -11 29
-32 36 -41 48 -41 59 0 6 -6 18 -12 25 -31 34 -36 43 -31 49 8 7 -17 37 -26
31 -4 -2 -8 2 -9 10 -1 8 -3 22 -4 30 -1 8 -4 12 -8 10 -3 -2 -12 12 -19 31
-7 19 -16 32 -20 29 -5 -2 -14 14 -21 36 -8 23 -20 43 -27 46 -7 3 -11 9 -8
13 3 4 -2 13 -10 20 -7 6 -11 19 -8 27 4 11 2 14 -5 9 -8 -5 -12 0 -12 13 0
12 -4 21 -9 21 -8 0 -33 51 -33 67 0 4 -6 11 -13 16 -8 4 -12 14 -9 21 3 8 0
17 -7 22 -8 5 -10 3 -4 -6 6 -9 4 -11 -4 -6 -7 5 -10 14 -7 22 3 8 -1 17 -9
20 -8 4 -12 10 -9 15 3 5 0 9 -6 9 -6 0 -8 5 -5 10 3 6 2 10 -3 10 -6 0 -8 10
-5 23 4 18 3 19 -7 7 -10 -12 -11 -11 -7 8 3 12 2 20 -3 17 -7 -4 -19 13 -25
35 -8 31 -18 50 -26 50 -6 0 -8 4 -4 9 3 5 -2 17 -11 25 -8 9 -13 16 -10 16 3
0 -13 37 -35 81 -22 45 -38 88 -35 96 3 8 1 11 -4 8 -6 -3 -10 0 -10 8 0 8 -6
20 -14 26 -8 7 -13 23 -11 36 1 14 -1 23 -5 20 -4 -2 -13 11 -20 30 -8 19 -17
35 -21 35 -4 0 -6 11 -5 24 2 14 -3 27 -10 30 -8 3 -14 17 -14 31 0 14 -4 25
-10 25 -5 0 -10 8 -10 17 0 9 -8 26 -17 37 -17 20 -17 20 0 7 15 -12 17 -12
11 3 -3 9 -11 16 -16 16 -6 0 -8 7 -4 15 3 8 1 15 -4 15 -6 0 -10 9 -10 20 0
11 -5 20 -10 20 -6 0 -9 3 -9 8 1 4 0 9 -1 12 -1 3 -3 12 -5 21 -1 9 -10 32
-19 51 -10 20 -18 45 -19 57 -1 11 -5 21 -10 21 -4 0 -5 5 -2 10 3 6 0 10 -7
10 -11 0 -10 2 0 9 11 7 10 9 -3 15 -9 3 -13 11 -10 16 4 6 1 18 -7 27 -7 9
-12 19 -12 22 2 8 -6 33 -17 54 -6 11 -6 17 2 17 6 0 3 7 -5 16 -9 8 -16 23
-16 33 0 9 -6 23 -12 30 -10 11 -10 13 0 7 17 -10 15 -1 -4 18 -12 12 -12 16
-2 16 10 0 10 2 1 8 -7 4 -14 17 -16 27 -13 64 -21 85 -29 85 -6 0 -5 7 2 15
10 12 9 16 -4 21 -9 3 -13 10 -10 15 3 6 0 16 -6 24 -10 12 -10 15 1 15 11 0
11 2 1 8 -7 5 -14 17 -17 28 -2 10 -8 34 -14 52 -5 18 -7 40 -4 49 4 11 2 14
-5 9 -8 -5 -12 2 -12 21 0 16 -6 35 -12 42 -11 11 -10 12 1 6 10 -6 12 -4 5 6
-9 14 -14 34 -16 57 -1 6 -4 12 -7 12 -3 0 -7 14 -8 31 -1 17 -8 38 -15 47
-11 13 -11 14 2 7 12 -7 13 -6 3 6 -7 9 -14 29 -16 45 -2 17 -7 35 -11 42 -4
7 -4 12 1 12 4 0 1 5 -7 10 -11 7 -11 10 -2 10 9 0 10 5 3 19 -6 10 -7 21 -4
25 3 3 1 6 -5 6 -7 0 -10 14 -8 34 1 21 -2 32 -7 29 -6 -4 -8 3 -5 15 4 12 2
22 -2 22 -5 0 -7 8 -5 18 1 9 -2 23 -8 30 -5 6 -6 12 -2 12 4 0 1 8 -6 17 -12
15 -12 16 1 8 13 -8 13 -7 1 8 -11 14 -11 17 0 18 8 0 5 4 -6 9 -11 5 -14 9
-7 9 10 1 10 7 -1 29 -7 15 -12 35 -10 45 3 9 -1 17 -9 17 -11 0 -11 2 0 9 11
7 10 11 -2 24 -10 10 -12 18 -6 22 6 4 7 12 3 18 -4 7 -9 23 -11 37 -1 14 -4
36 -6 50 -2 14 -6 33 -10 42 -4 9 -5 21 -2 27 4 5 2 12 -3 16 -6 3 -8 12 -4
20 3 8 0 15 -6 15 -8 0 -9 6 -2 19 6 10 7 21 4 25 -7 7 -9 15 -19 91 -10 79
-11 90 -14 95 -1 3 -2 22 -2 43 0 20 -5 37 -10 37 -7 0 -6 5 1 13 8 10 7 17
-2 26 -9 9 -9 14 3 21 12 8 12 10 1 10 -8 0 -11 7 -8 20 3 11 0 20 -6 20 -7 0
-5 5 3 10 8 5 11 10 5 10 -6 0 -10 26 -9 60 0 33 -3 60 -8 60 -5 0 -6 5 -2 12
11 17 11 58 1 58 -4 0 -4 7 1 17 6 9 6 29 2 45 -6 18 -5 28 2 28 6 0 5 7 -3
17 -10 11 -10 14 -1 9 6 -4 12 -3 12 3 0 5 -5 13 -10 16 -6 4 -7 13 -2 23 5 9
8 54 8 99 -1 44 2 79 6 77 4 -2 9 0 13 6 3 5 2 10 -3 10 -6 0 -13 7 -16 16 -3
8 -2 13 3 10 5 -3 11 5 13 19 3 14 1 25 -5 25 -8 0 -7 4 0 11 6 6 9 18 6 27
-4 8 -2 13 3 10 5 -4 9 17 7 48 0 30 3 57 9 60 6 4 5 9 -3 14 -9 6 -10 13 -3
22 6 7 10 20 9 28 0 8 4 18 10 22 7 5 7 8 -1 8 -10 0 -11 57 0 67 3 4 1 12 -5
20 -6 7 -8 13 -3 13 5 0 9 21 8 48 0 26 4 53 10 61 7 9 7 12 1 9 -7 -4 -11 26
-13 85 -3 128 -8 182 -16 196 -4 6 -1 11 6 11 8 0 9 3 3 8 -6 4 -10 19 -10 35
1 15 -4 27 -10 27 -5 0 -3 5 5 10 8 5 10 10 3 10 -6 0 -9 9 -6 20 3 12 0 20
-7 20 -10 0 -9 4 1 16 10 13 10 17 -2 25 -8 5 -10 9 -5 9 5 0 3 7 -4 15 -7 9
-8 15 -2 15 10 0 1 57 -13 80 -6 9 -4 11 5 5 9 -5 11 -4 6 3 -9 15 -16 49 -18
84 0 15 -4 26 -7 24 -3 -2 -7 19 -8 47 -2 28 -9 54 -15 59 -10 6 -9 8 2 8 12
0 12 2 2 9 -8 4 -12 20 -11 33 2 14 -3 33 -11 44 -12 14 -12 16 -1 9 11 -6 12
-5 5 6 -4 8 -10 21 -12 29 -6 31 -11 56 -18 95 -4 22 -11 46 -17 53 -6 8 -5
12 4 12 11 1 11 3 -1 13 -8 7 -16 23 -17 37 -6 59 -8 70 -15 70 -4 0 -5 7 -2
15 4 8 1 15 -6 15 -9 0 -9 4 1 17 10 11 10 14 2 9 -9 -5 -13 1 -14 21 -1 15
-1 31 0 36 0 4 -4 7 -9 7 -6 0 -10 5 -10 11 0 5 6 7 13 4 6 -4 3 1 -7 9 -13
11 -15 16 -6 16 9 0 8 6 -6 22 -10 12 -13 18 -7 14 9 -5 11 -2 7 8 -3 9 -10
16 -15 16 -5 0 -8 3 -8 8 1 4 1 9 0 12 -1 3 -4 23 -6 44 -3 22 -10 43 -17 48
-10 6 -10 8 2 8 12 0 12 2 2 9 -7 4 -14 18 -15 29 -1 12 -5 22 -10 22 -4 0 -5
5 -2 10 3 6 0 10 -7 10 -11 0 -10 2 0 9 11 6 10 10 -3 15 -15 5 -15 9 -4 23
10 12 10 14 2 9 -12 -6 -18 11 -14 37 0 4 -4 7 -10 7 -5 0 -7 5 -4 10 4 6 1
17 -5 25 -7 8 -9 15 -4 15 5 0 3 4 -3 8 -7 5 -14 20 -15 35 -1 15 -6 27 -10
27 -4 0 -8 9 -8 20 0 11 -4 20 -9 20 -4 0 -8 10 -7 23 0 12 -4 21 -10 20 -6
-1 -10 11 -9 27 1 17 -4 31 -12 34 -8 3 -12 10 -9 14 3 5 -1 20 -9 35 -8 15
-11 27 -8 27 3 0 0 7 -7 15 -7 8 -9 15 -6 15 4 0 0 7 -8 16 -9 8 -14 20 -11
25 4 5 1 9 -4 9 -6 0 -11 8 -11 18 0 10 -7 27 -15 38 -8 12 -11 24 -8 28 3 3
1 6 -6 6 -7 0 -10 4 -6 9 3 5 -2 17 -11 25 -11 12 -12 16 -2 16 10 0 10 2 0 8
-16 11 -53 84 -38 76 6 -3 3 1 -6 9 -10 8 -15 17 -11 20 3 4 1 7 -5 7 -7 0
-12 9 -12 21 0 11 -4 18 -9 15 -5 -3 -12 1 -15 10 -3 8 -2 12 4 9 16 -10 12 0
-10 25 -12 13 -19 29 -16 36 3 7 -2 15 -10 18 -9 3 -13 10 -10 15 4 5 2 11 -3
13 -5 1 -11 10 -13 18 -5 21 -22 39 -32 32 -5 -3 -6 0 -2 7 4 6 2 18 -4 26 -6
8 -8 20 -4 26 4 8 3 9 -4 5 -7 -4 -12 -2 -12 4 0 6 -4 8 -10 5 -5 -3 -7 0 -4
8 3 8 -2 20 -11 27 -8 7 -15 19 -15 26 0 8 -5 14 -11 14 -5 0 -7 5 -4 10 3 6
1 10 -6 10 -7 0 -10 3 -6 6 3 3 -3 15 -13 27 -11 11 -17 24 -14 29 3 4 -3 8
-13 9 -10 0 -13 3 -6 5 7 3 4 13 -10 28 -12 12 -25 21 -29 19 -4 -2 -5 6 -3
17 2 13 -1 20 -11 20 -8 0 -13 4 -9 9 3 6 -1 13 -9 18 -8 4 -16 15 -18 23 -2
8 -10 20 -18 27 -8 7 -11 13 -7 13 4 0 2 6 -5 14 -7 8 -16 12 -20 9 -5 -2 -8
1 -8 7 0 11 -5 18 -52 71 -16 17 -25 35 -22 40 3 5 -2 9 -10 9 -9 0 -16 6 -16
14 0 8 -10 18 -21 21 -17 6 -19 9 -8 16 11 7 10 9 -4 9 -10 0 -16 4 -12 9 3 5
-4 13 -16 16 -15 5 -18 10 -9 15 8 5 5 9 -10 13 -14 4 -19 10 -14 18 4 7 3 10
-3 6 -10 -6 -43 26 -43 42 0 10 -30 25 -43 22 -5 -1 -6 3 -2 8 3 6 -3 16 -15
23 -11 7 -20 19 -20 27 0 8 -3 11 -6 8 -4 -4 -18 6 -30 21 -13 15 -24 24 -24
20 0 -3 -16 9 -35 28 -20 19 -40 32 -45 29 -6 -3 -7 1 -4 9 6 14 -5 21 -28 17
-5 0 -8 4 -8 10 0 13 -25 39 -39 39 -5 0 -15 8 -20 18 -6 9 -11 14 -11 9 0 -4
-14 6 -31 23 -29 27 -42 34 -61 31 -4 0 -10 8 -13 19 -4 11 -11 18 -16 15 -5
-4 -9 -2 -9 2 0 5 -16 17 -35 27 -19 10 -32 23 -29 27 3 5 -4 9 -15 9 -12 0
-21 5 -21 10 0 6 -9 10 -21 10 -11 0 -17 5 -14 10 3 6 -1 10 -9 10 -9 0 -16 5
-16 11 0 5 -4 7 -10 4 -5 -3 -10 -2 -10 4 0 10 -39 27 -53 23 -5 -1 -6 2 -2 8
3 5 -1 10 -10 10 -10 0 -13 5 -9 12 4 6 3 8 -4 4 -6 -3 -13 -2 -17 4 -4 6 -11
8 -16 5 -5 -4 -9 -1 -9 4 0 6 -7 11 -16 11 -8 0 -12 5 -9 10 3 6 -3 10 -14 10
-12 0 -21 5 -21 11 0 5 -4 7 -10 4 -5 -3 -10 -1 -10 5 0 6 -4 8 -10 5 -5 -3
-10 -1 -10 5 0 6 -4 8 -10 5 -5 -3 -10 -1 -10 4 0 6 -6 10 -12 9 -7 -2 -12 3
-10 10 1 8 -2 11 -8 7 -5 -3 -10 0 -10 7 0 9 -3 9 -10 -2 -8 -13 -10 -13 -10
2 0 11 -5 15 -15 12 -8 -4 -15 -1 -15 5 0 6 -7 8 -17 4 -10 -4 -14 -2 -10 4 8
12 -20 27 -43 24 -8 -2 -12 0 -8 5 7 7 -75 54 -94 54 -5 0 -16 7 -25 15 -8 8
-19 13 -24 10 -5 -4 -9 -1 -9 6 0 7 -3 9 -7 6 -3 -4 -12 1 -20 11 -9 10 -11
11 -7 2 7 -13 6 -13 -12 0 -10 8 -22 19 -25 24 -4 4 -10 3 -13 -3 -5 -8 -14
-4 -27 11 -12 13 -18 16 -14 8 5 -12 4 -12 -7 1 -7 9 -16 17 -21 17 -37 7 -67
18 -91 35 -16 12 -26 16 -22 9 4 -7 2 -12 -3 -12 -6 0 -11 5 -11 10 0 6 -9 10
-19 10 -11 0 -21 4 -23 9 -1 5 -14 11 -28 13 -14 1 -31 8 -37 15 -7 6 -24 10
-38 9 -13 -2 -22 1 -19 5 5 9 -17 13 -45 10 -8 -2 -10 2 -5 10 5 9 2 10 -9 6
-10 -4 -17 -1 -17 6 0 9 -3 8 -9 -1 -6 -11 -10 -10 -15 4 -3 9 -9 14 -13 11
-3 -4 -13 -1 -21 6 -13 10 -14 9 -7 -3 7 -12 6 -13 -7 -3 -8 7 -18 10 -21 6
-4 -3 -7 -1 -7 5 0 6 -7 9 -17 5 -12 -5 -14 -3 -8 7 5 9 4 11 -4 6 -6 -4 -19
-2 -28 6 -14 11 -16 11 -8 -2 6 -10 2 -9 -12 3 -15 13 -22 15 -25 6 -3 -9 -8
-8 -18 2 -8 8 -31 16 -50 17 -19 2 -39 7 -45 11 -9 7 -38 11 -87 14 -10 1 -18
5 -18 9 0 4 -14 8 -31 8 -21 0 -28 4 -23 13 5 8 2 8 -9 -2 -14 -11 -17 -11
-17 0 0 12 -2 12 -9 0 -6 -9 -11 -10 -15 -2 -4 6 -20 11 -35 11 -15 0 -33 6
-40 13 -11 10 -13 10 -7 0 4 -7 2 -13 -3 -13 -6 0 -11 4 -11 8 0 4 -8 8 -17 9
-10 1 -36 2 -58 3 -22 2 -46 7 -52 13 -9 6 -13 6 -13 -3 0 -8 -4 -9 -12 -3 -7
5 -31 11 -52 12 -49 3 -77 9 -84 16 -3 2 -11 0 -19 -6 -7 -6 -13 -7 -13 -2 0
5 -7 10 -15 10 -8 0 -15 -5 -15 -11 0 -6 -5 -4 -10 4 -5 8 -10 12 -10 8 0 -4
-13 -3 -30 2 -19 5 -30 5 -30 -1 0 -6 -5 -7 -10 -4 -19 12 -149 12 -154 1 -2
-6 -5 -3 -5 7 -1 10 -6 15 -11 12 -19 -12 -90 -14 -90 -3 0 7 -4 7 -12 1 -15
-11 -28 -11 -47 1 -10 7 -12 6 -6 -4z m-6995 -15280 c0 -5 -2 -10 -4 -10 -3 0
-8 5 -11 10 -3 6 -1 10 4 10 6 0 11 -4 11 -10z"/>
</g>
</svg>
